<?xml version="1.0" encoding="UTF-8"?>
<svg id="Layer_1" data-name="Layer 1" xmlns="http://www.w3.org/2000/svg" viewBox="0 0 566.93 566.93">
  <path d="M223.29,368.66c-.35.17-.71.31-1.04.51-1.67,1.02-3.42,1.82-5.34,2.22-.33.07-.67.08-1,.12-.03-.06-.05-.12-.08-.17.27-.17.53-.37.82-.52,2.49-1.33,4.66-3.04,6.38-5.3.09-.12.16-.27.24-.4.02-.01.05-.02.07-.04,0,0,0-.03,0-.05-.01.03-.03.07-.04.1-.18.08-.39.13-.54.25-1.55,1.21-3.35,1.81-5.23,2.22-.24.05-.5,0-.87,0,.4-.67,1.04-.81,1.48-1.2.46-.4.94-.78,1.39-1.19.44-.41.86-.86,1.25-1.34-.92.24-1.67.93-2.62,1.02-.04-.06-.09-.13-.13-.19l1.62-1.88c-1.64.85-3.3,1.54-5.16,1.64-1.82.1-3.62.08-5.33-.79,1.45-.49,2.88-.94,4.05-1.94,1.14-.97,2.09-2.09,2.88-3.38-2.19,1.6-4.53,2.83-7.23,3.22-2.67.39-5.29.19-7.85-.66,0-.06,0-.13,0-.19.3-.05.6-.1.9-.14,2.83-.39,5.34-1.54,7.62-3.22,2.57-1.89,4.72-4.19,6.47-6.85.08-.12.14-.26.26-.49-.18.09-.26.11-.31.16-1.92,1.74-4.3,2.7-6.59,3.82-.13.07-.3.06-.45.08l.02.02c.59-.57,1.18-1.13,1.76-1.7,1.81-1.78,3-3.96,3.96-6.28.5-1.2.99-2.4,1.54-3.58.37-.81.83-1.58,1.3-2.46-1.63.57-3.19,1.07-4.04,2.67-.04.07-.15.11-.23.16l.02.02c.08-1.06.4-2.03,1.13-2.82.59-.65,1.17-1.31,1.82-1.9,1.72-1.55,2.85-3.48,3.66-5.62.68-1.78,1.34-3.58,2.07-5.35.38-.92.9-1.79,1.42-2.8-1.08.72-1.92,1.5-2.6,2.43-1.24,1.69-2.41,3.43-3.61,5.15-.21.3-.43.61-.64.91-.82,1.19-1.85,2.12-3.36,2.59.12-.16.2-.27.28-.37.09-.1.2-.18.27-.29.33-.55.66-1.12.98-1.67.02,0,.05,0,.07,0-.02-.02-.03-.03-.05-.05,0,.02,0,.05,0,.07-.19.12-.4.22-.57.36-1.47,1.23-3.14,2.04-5.03,2.42-1.13.23-2.23.57-3.35.86,0,0,.02.02.02.02.27-.38.49-.83.83-1.13.74-.64,1.56-1.19,2.32-1.81.65-.53,1.25-1.11,2-1.78-.32-.06-.44-.1-.56-.1-1.09-.02-2.18.02-3.27-.06-1.63-.12-3.16.23-4.65.83-1.92.77-3.18,2.15-3.91,4.06-.02.06,0,.15,0,.36,1.57-1.36,3.2-2.39,5.31-2.4.06.54-.34.78-.6,1.07-1.64,1.82-2.84,3.9-3.79,6.14-.07.17-.13.34-.15.56,1.66-2.14,4-3.07,6.44-3.81.07.08.14.17.21.25-.12.05-.25.08-.36.14-1.08.63-1.92,1.52-2.5,2.62-1.1,2.12-2.16,4.25-3.24,6.38,0,.02,0,.04-.01.05v-.07c.8-.2,1.39-.75,1.9-1.34.6-.7,1.14-1.46,1.64-2.24.97-1.5,1.96-2.99,3.39-4.09.98-.76,2.05-1.41,3.09-2.09.16-.11.36-.16.63-.12-.25.16-.49.34-.75.49-2.07,1.22-3.6,2.95-4.76,5.02-.92,1.65-1.71,3.35-2.3,5.15-.46,1.4-.88,2.83-1.71,4.13.17-.1.34-.19.5-.3,1.44-1.07,2.39-2.53,3.31-4.04,1.02-1.68,2.01-3.37,3.1-5,1.01-1.51,2.32-2.76,3.75-3.87.25-.19.54-.31.82-.47,0,0-.02-.02-.02-.02-.14.17-.26.37-.43.52-2.28,1.94-4.01,4.3-5.27,7.02-.47,1.01-.97,2.01-1.46,3.01-.92,1.88-2.34,3.33-3.86,4.72-1.48,1.35-3.1,2.5-4.83,3.49-1.59.91-3.13,1.9-4.51,3.13-.65.58-1.2,1.24-1.73,2.01.71,0,1.31.02,1.92,0,1.01-.03,1.95.19,2.84.66.19.1.38.19.57.29,1.14.61,2.31,1.09,3.68.96-.11.07-.21.18-.33.22-2.66.99-4.73,2.7-6.27,5.07-.22.33-.44.67-.66,1-.62.95-1.33,1.83-2.29,2.48,2.24-.41,3.9-1.78,5.62-3.42-.06.33-.06.46-.11.57-.97,2.39-2.4,4.45-4.61,5.84-.93.58-2,1.03-3.06,1.3-3.48.86-5.93,3.03-7.74,5.97-1.46,2.37-2.71,4.87-4.02,7.33-1.1,2.07-2.28,4.08-3.72,5.93-.08.1-.13.22-.29.48.89-.39,1.45-.93,1.99-1.47.41-.41.79-.87,1.12-1.34,1.04-1.48,2.06-2.97,3.63-4.14-.36-.09-.62-.16-.99-.26.14-.3.23-.56.38-.79.62-.93,1.48-1.51,2.56-1.76.9-.21,1.82-.39,2.72-.61.48-.12.95-.3,1.57-.5-.21.22-.3.37-.43.44-.96.45-1.91.91-2.89,1.3-.8.32-1.61.61-2.45,1.17.77.13,1.41.23,2.27.37-.38.23-.59.39-.83.5-1.74.79-3.01,2.09-3.91,3.73-1.03,1.86-1.95,3.77-2.97,5.63-1.06,1.93-2.18,3.83-3.27,5.74-.09.15-.17.31-.21.52.83-.51,1.51-1.18,2.11-1.93,1.35-1.68,2.79-3.28,4.46-4.65.42-.34.94-.56,1.41-.83v-.02c-2.24,3.77-3.56,7.94-5.33,11.91-.04.09-.05.19.03.36l1.89-2.06s.07.03.1.05c-.03.16-.04.33-.1.49-.63,1.72-1.23,3.45-1.91,5.15-.47,1.17-1.33,2.04-2.46,2.61-.11.05-.22.08-.49.18,1-1.7,2.26-3.08,2.79-4.99-.7.19-1.22.79-2.05.57.11-.24.2-.44.31-.63.93-1.69,1.57-3.48,2.06-5.34.08-.29.07-.61.11-.96-.56.05-.78.41-.98.73-.6.97-1.23,1.93-1.72,2.96-1.33,2.81-2.59,5.65-3.87,8.48-.33.73-.35.77-1.03.68-.26-.45-.06-.88.11-1.28,1.25-2.85,2.51-5.69,3.77-8.53.18-.4.38-.79.61-1.28-.83.15-1.52.58-2.36.14.11-.26.16-.52.32-.7,1.35-1.54,2.25-3.34,3.17-5.14.6-1.18,1.19-2.36,1.87-3.71-.63.3-1.08.54-1.56.73-.31.12-.66.21-1,.21-.42,0-.6-.33-.42-.72.08-.17.19-.32.32-.45,1.68-1.79,2.82-3.91,3.85-6.11.88-1.88,1.71-3.77,2.6-5.64,1.1-2.31,2.41-4.5,4.18-6.37.05-.05.07-.13.16-.3-1.06-.1-2.2.27-3.15-.65.27-.26.45-.49.67-.64,1.93-1.35,3.37-3.14,4.65-5.09,1.13-1.73,2.25-3.48,3.41-5.2,1.12-1.67,2.43-3.16,4.3-4.05.04-.02.05-.08.08-.13-.86-.3-1.54.35-2.51.53.2-.51.3-.88.47-1.21.94-1.83,2.23-3.37,3.93-4.53,1.16-.79,2.38-1.51,3.55-2.28,1.04-.69,2.06-1.41,3.08-2.12.15-.1.27-.24.43-.39-.2-.09-.35-.16-.61-.28,1.16-1.76,2.05-3.6,2.55-5.67-.7.41-1.31.81-1.96,1.14-.3.15-.66.21-1,.21-.45,0-.59-.29-.42-.71.02-.05.04-.1.08-.14.93-1.2,1.32-2.65,1.83-4.04.42-1.14.96-2.24,1.47-3.42-.18.15-.37.26-.5.42-.61.8-1.2,1.62-1.79,2.43-.23.32-.45.66-.7.97-.2.25-.48.34-.78.14-.27-.18-.27-.42-.17-.7.38-1.16.74-2.33,1.13-3.49.3-.91.59-1.83.99-2.69.35-.76.86-1.45,1.35-2.26-1.04.53-1.75,1.28-2.39,2.12-.22.3-.42.61-.65.9-.23.29-.54.45-.91.27-.37-.18-.42-.5-.34-.88.64-2.78,1.34-5.53,3.03-7.9.04-.06.05-.14.08-.24-3.59-.65-7.09-1.71-10.74-1.89-1.91-.09-3.82-.07-5.74-.06-3.29,0-6.51-.45-9.66-1.38-1.17-.35-2.36-.65-3.56-.86-.91-.16-1.85-.14-2.77-.18-.39-.02-.8.1-1.15-.27.09-.83.91-1.1,1.33-1.68-.02-.04-.04-.11-.07-.12-1.02-.24-1.17-1.07-.45-1.78.34-.33.65-.71,1-1.03,1.88-1.75,3.27-3.91,4.83-5.92.98-1.26,2.03-2.46,3.05-3.68,1.23-1.46,2.44-2.95,3.71-4.38,1.84-2.06,3.72-4.08,5.59-6.11.09-.09.17-.19.33-.36-.29-.04-.48-.05-.67-.09-.58-.12-.72-.52-.32-.98.17-.2.4-.35.59-.53.81-.75,1.62-1.5,2.42-2.26-.02-.05-.05-.1-.07-.14-.3.03-.6.07-.91.07-.54,0-.72-.3-.49-.78.07-.14.16-.28.26-.4,1.91-2.06,3.29-4.49,4.77-6.85,2.36-3.75,4.77-7.48,7.2-11.19.69-1.06,1.57-1.99,2.41-3.03-.17.03-.32.07-.48.1-.78.16-1.55.38-2.34.45-.74.07-1.07-.38-.92-1.11.06-.31.2-.6.33-.89.13-.26.28-.52.46-.75,1.81-2.27,2.53-4.98,3.18-7.74.54-2.32,1.24-4.61,1.86-6.91.21-.76.38-1.53.6-2.41-.28.04-.42.09-.57.09-.56,0-.84-.33-.68-.87.09-.3.27-.58.35-.89.26-.95.52-1.89.74-2.85.04-.18.01-.44-.09-.6-.26-.38-.23-.76-.09-1.14.91-2.6,1.34-5.37,2.77-7.86h-1.45c-.24-.47-.03-.81.17-1.11.36-.53.73-1.05,1.14-1.53,1.09-1.29,1.92-2.74,2.55-4.3.97-2.39,1.98-4.76,2.9-7.16.68-1.78,1.22-3.62,1.86-5.42.45-1.25.91-2.5,1.48-3.69,1.4-2.95,3.73-5,6.63-6.4,1.82-.88,3.67-1.68,5.51-2.52,3.66-1.66,6.49-4.28,8.73-7.58,1.11-1.63,1.68-3.48,2.07-5.39.84-4.14,1.69-8.28,2.49-12.42.86-4.46,1.08-8.96.84-13.49-.12-2.22-.46-4.44-.55-6.66-.06-1.34.06-2.71.27-4.04.49-3.06,1.35-6.01,2.96-8.7.75-1.26,1.59-2.48,2.78-3.36,2.86-2.15,6.02-3.48,9.69-3.13,1.19.11,2.37.33,3.54.55.49.09.96.3,1.42.5.52.22.87.64.9,1.22.04.68.42,1.04.98,1.33.57.29,1.13.59,1.66.95,1.41.96,2.31,2.27,2.47,3.99.09.93.57,1.5,1.3,2.05,1.24.95,2.42,1.99,3.53,3.08,2.14,2.11,4.22,4.27,6.02,6.68,1.75,2.35,3.23,4.87,4.55,7.48.61,1.21,1.27,2.39,1.9,3.59.3.58.74.81,1.4.84,3.12.13,5.76,1.38,7.94,3.57.55.55,1.05,1.23,1.38,1.93,1.49,3.12,2.76,6.33,3.52,9.71.58,2.57.48,5.11-.28,7.64-.86,2.87-1.67,5.76-2.54,8.64-.94,3.11-1.26,6.3-1.33,9.52-.15,6.77.54,13.47,1.82,20.12.68,3.51,2.08,6.67,4.03,9.63,2.73,4.16,5.9,7.92,9.84,11,.92.72,1.92,1.33,2.88,1.99.34.23.81.39.72.93-.1.54-.56.75-1.01.75-.98,0-1.96-.06-2.93-.18-.65-.08-1.27-.31-2.05-.51.42.55.76,1,1.1,1.46,2.08,2.81,3.17,6.04,4.01,9.39.57,2.29,1.19,4.57,1.86,6.84.63,2.12,1.77,3.97,3.18,5.66.25.31.47.64.69.97.21.32.24.65-.02.96-.27.32-.63.3-.95.16-.36-.15-.69-.39-1.04-.58-.22-.12-.46-.22-.69-.33-.02-.01-.03-.03-.05-.04.02,0,.04.02.06.03.46.8.92,1.59,1.36,2.39,1.66,3,2.26,6.24,2.1,9.64-.02.51-.02,1.07-.47,1.49-.44.02-.64-.31-.85-.6-.71-1.02-1.42-2.04-2.13-3.06-.03,0-.06-.02-.07-.02h.09c.07.24.1.51.22.73,1.52,2.75,2.16,5.75,2.57,8.82.03.21.02.42.03.64.02.45,0,.88-.63.89.85,3.19,1.67,6.33,2.89,9.34.16.4.22.84.38,1.44-.49-.1-.8-.12-1.08-.23-1.18-.46-2.18-1.2-3.14-2-.16-.13-.32-.27-.59-.49.03.28.02.45.07.6.55,1.99.7,4.02.83,6.07.11,1.8.21,3.61.47,5.39.17,1.17.61,2.3.94,3.45.12.4.38.77.13,1.3-.26-.04-.57-.03-.8-.15-.63-.32-1.24-.71-1.86-1.06-.22-.13-.44-.25-.66-.38-.02-.03-.03-.06-.05-.08,0,.02,0,.04,0,.05.02.01.04.01.06.02.22.62.44,1.24.67,1.85,1.33,3.41,2.62,6.84,4.01,10.22,1.04,2.53,2.39,4.91,4.11,7.06.12.14.26.29.31.46.07.23.18.55.08.71-.11.17-.47.31-.67.26-.71-.18-1.43-.4-2.09-.71-.62-.28-1.19-.69-1.78-1.05h-.03s.05-.01.05-.01c.1.23.17.48.31.69,1.26,1.92,2.83,3.58,4.41,5.23.37.38.74.77,1.04,1.2.13.19.23.54.14.72-.09.17-.44.29-.67.28-.42-.01-.84-.11-1.25-.22-2.07-.6-3.92-1.62-5.6-2.96-.02,0-.03,0-.05.01l.07-.04c.07.21.09.45.2.63,2.71,4.28,6.01,8.03,10.04,11.11.44.34.88.69,1.29,1.06.32.28.67.62.45,1.09-.22.48-.67.63-1.19.62-1.65-.03-3.29-.14-4.88-.62-.05-.01-.1-.02-.19.02,2.83,2.2,5.71,4.34,7.72,7.57-.33-.04-.55-.04-.77-.09-1.22-.27-2.42-.23-3.63.05-.9.2-1.81.31-2.78.47.1.12.19.27.31.39,2.08,2.01,4.2,3.98,6.24,6.04,2.97,3,5.07,6.59,6.83,10.4.15.32.36.66.09,1.16-.3-.19-.6-.33-.85-.54-1.4-1.14-2.79-2.29-4.18-3.44-.12-.1-.25-.18-.45-.19.34.52.69,1.03,1.02,1.56,1.83,2.94,2.95,6.16,3.7,9.53.1.45.15.86-.48,1.01.63,1.3,1.25,2.56,1.85,3.83.18.39.48.77.32,1.36-.98-.11-1.34-1.13-2.24-1.5.54,1.16,1.05,2.2,1.52,3.25.3.68.57,1.37.81,2.08.11.33.1.7.16,1.16-.86-.13-1.05-.8-1.46-1.2-.41-.4-.77-.85-1.25-1.22.47,1,.96,1.98,1.39,2.99.43,1.01.9,2.01.97,3.16-1.21-.72-2.12-1.72-3.01-2.74-.01,0-.02,0-.04,0,.02,0,.04,0,.06,0,.05.24.07.5.16.73.3.73.65,1.44.93,2.18.12.3.11.65.15.92-.43.34-.69.1-.93-.09-.57-.43-1.11-.89-1.67-1.32-.14-.11-.31-.19-.46-.28l.02-.02c.57.86,1.13,1.72,1.7,2.57.24.35.51.68.73,1.04.46.77.14,1.56-.73,1.66-1.9.23-3.8.39-5.71.56-.58.05-1.05-.23-1.3-.76-.76-1.6-1.93-2.92-2.97-4.32-1.34-1.79-2.07-3.81-2.16-6.08,1.41,2.9,3.9,4.74,6.46,6.52-1-1.66-2.44-3.06-3-5.01,1.6,1.79,3.44,3.3,5.43,4.67-2-3.15-4.48-6.01-5.76-9.71,1.9,1.82,3.74,3.59,5.57,5.35.05-.03.09-.06.14-.09-.06-.15-.11-.31-.19-.44-1.43-2.3-2.87-4.59-4.3-6.89-.86-1.38-1.57-2.84-1.94-4.43-.08-.34-.07-.69-.02-1.06.91,1.78,2.12,3.31,3.42,4.78,1.27,1.45,2.63,2.82,4.18,4.01-.09-.18-.16-.37-.26-.54-1.36-2.37-2.73-4.74-4.51-6.84-.11-.13-.14-.32-.21-.48l-.02.02c.73.61,1.47,1.19,2.17,1.83,1.02.93,2,1.9,3.05,2.8-1.69-3.08-3.81-5.86-6.14-8.51,1.03.23,1.81.89,2.62,1.48.84.6,1.64,1.25,2.53,1.83-1.43-2.99-3.48-5.55-5.57-8.09,2.38,1.2,4.32,2.98,6.43,4.63-.3-.63-.56-1.29-.9-1.89-1.56-2.79-3.54-5.23-6.23-7.02-1.48-.99-2.98-1.94-4.48-2.9-.17-.11-.36-.2-.61-.22.1.13.18.29.3.39,1.31,1.08,2.63,2.15,3.95,3.22,1.26,1.02,2.46,2.1,3.38,3.46.09.13.17.27.25.41.02.04.01.1.02.13-1.23-.8-2.41-1.73-3.72-2.39-1.34-.67-2.8-1.08-4.21-1.6-.03.05-.05.1-.08.15.39.29.78.58,1.18.86,2.11,1.49,3.95,3.22,5.21,5.51.15.27.22.57.33.86h.02c-.53-.51-1.07-1.02-1.6-1.54-1.97-1.92-4.42-3.06-6.98-4.29.06.21.07.31.11.38.77,1.38,1.26,2.86,1.6,4.39.68,3.03,1.98,5.75,3.92,8.17.15.18.26.39.31.71-.22-.1-.48-.16-.67-.31-1.03-.78-2.05-1.58-3.07-2.39-.27-.21-.51-.45-.77-.68h.02c.07.18.11.4.23.56,1.18,1.7,2.37,3.38,3.55,5.07.11.16.23.32.29.53-2.15-1.12-4.08-2.51-5.84-4.24.13.25.27.49.39.75.86,1.85,1.72,3.69,2.56,5.55.16.35.21.74.31,1.11-.05.03-.11.06-.16.09-.15-.2-.29-.4-.44-.59-1.08-1.37-2.16-2.75-3.25-4.11-.14-.17-.36-.27-.55-.41-.02-.06-.04-.12-.05-.17-.02.01-.04.03-.05.04.04.04.08.08.12.12.12.26.22.53.36.78,1.34,2.25,2.41,4.61,3.05,7.16.03.13.07.26.09.39,0,.05-.02.1-.06.28-1.61-2.62-4.13-4.18-6.32-6.11,1.76,2.62,3.46,5.25,4.3,8.32-.06.04-.12.09-.18.13-.41-.52-.79-1.06-1.23-1.55-.48-.53-.99-1.04-1.52-1.52-.51-.46-1.07-.86-1.68-1.25,1.23,1.79,2.16,3.69,2.49,5.86-1.58-2.27-3.85-3.66-6.16-5.03,2.27,2.16,3.84,4.67,4,7.91-1.19-1.48-2.36-2.97-3.82-4.18-1.44-1.2-2.92-2.36-4.37-3.53-.05.05-.09.1-.14.15.49.53.99,1.06,1.47,1.61,1.55,1.74,2.76,3.7,3.72,5.82.13.29.23.6.26.91.07.63-.24,1.06-.87,1.09-1,.04-2.02.03-3.02-.04-2.91-.21-5.82-.48-8.74-.68-1.72-.12-3.45-.14-5.17-.24-.55-.03-1.09-.19-1.63-.31-.5-.11-.67-.47-.67-.95,0-.72-.04-1.43-.02-2.15.08-3.65-.89-7.03-2.61-10.23-.85-1.56-1.66-3.15-2.52-4.71-1.05-1.91-1.52-3.95-1.56-6.11-.05-2.24-.21-4.45-1.17-6.54.94.67,1.6,1.57,2.18,2.53,1.19,1.96,1.76,4.14,2.34,6.33.19.74.37,1.48.65,2.21.2-1.14.19-2.28.04-3.41-.15-1.12-.44-2.21-.62-3.34.88.91,1.56,1.95,2,3.12.49,1.32.92,2.66,1.31,4.01.52,1.79,1.13,3.54,2.18,5.1.18.27.45.49.67.73,0,.04,0,.09.01.13.03-.02.05-.04.08-.06-.04-.02-.07-.04-.11-.06,0-.05.04-.11.02-.15-.72-2.24-.61-4.57-.78-6.86-.09-1.28-.21-2.55-.72-3.74-.25-.58-.61-1.11-.92-1.67v.02c.32.16.67.27.95.49,2.09,1.59,4.15,3.23,6.25,4.8,2.58,1.92,5.25,3.7,8.17,5.08.44.21.91.38,1.39.49-1-.69-2.02-1.35-3-2.07-3.36-2.46-5.9-5.58-7.31-9.52-1.38-3.87-3.08-7.57-5.13-11.11-.43-.75-.76-1.56-1.02-2.44.12.11.26.2.36.32,2.35,2.74,4.68,5.49,7.03,8.23,1.05,1.23,2.01,2.53,2.65,4.07.37-1.07.13-2.14.08-3.33.13.18.21.25.25.34.94,2.16,2.44,3.91,4.13,5.5,1.25,1.18,2.79,1.93,4.36,2.59.09.04.21.01.31.02.02.02.03.03.05.05-.02,0-.05-.02-.07-.03-.37-.38-.73-.76-1.1-1.13-1.34-1.34-2.26-2.94-2.86-4.73-.09-.27-.13-.55-.23-.99,1.37,1.42,2.61,2.72,3.86,4.01.05-.03.09-.07.14-.1-.07-.12-.13-.25-.21-.36-1.62-2.26-2.43-4.81-2.79-7.54-.18-1.37-.35-2.74-.55-4.1-.19-1.35-.62-2.63-1.4-3.86,1.02.05,1.47.87,2.2,1.28-2.38-4.61-5.24-8.88-8.79-12.79-.02.18-.06.26-.03.32,1.27,2.82,2.05,5.8,2.76,8.8.36,1.52.88,3,1.32,4.5.01.04-.02.1-.07.29-1.63-1.82-3.21-3.58-4.87-5.43,1.02,3.45,2.31,6.69,3.6,9.98-.1-.08-.22-.15-.31-.24-1.81-1.87-3.61-3.74-5.42-5.61-.06-.07-.17-.08-.26-.12l-.06-.14s.06.08.08.12c.46.9.91,1.79,1.37,2.69.78,1.51,1.58,3.01,2.35,4.52.2.39.35.81.53,1.26-.13-.01-.2,0-.21-.03-1.04-1.8-2.62-3.12-3.96-4.66-1.52-1.75-3.06-3.46-4.18-5.51-1.17-2.15-1.83-4.46-2.29-6.84-.38-1.98-.73-3.97-1.12-5.94-.12-.62-.31-1.22-.5-1.94.71.25.92.82,1.24,1.25.36.49.66,1.02.98,1.55.3.5.57,1.01.9,1.49-.05-1.27-.3-2.49-.84-3.63-.36-.76-.81-1.49-1.23-2.23-.7-1.22-1.33-2.47-1.64-3.87,1.51,2.24,3.69,3.84,5.46,5.82.04-.03.09-.06.13-.08-.18-.4-.34-.82-.53-1.21-.74-1.5-1.52-2.98-2.23-4.49-.75-1.61-1.48-3.23-2.13-4.88-.42-1.08-.57-2.23-.39-3.42.08.16.16.31.23.47.93,2.14,2.24,4.03,3.71,5.83.05.06.13.08.19.12.04.04.08.09.12.13-.02-.06-.05-.11-.07-.17-.27-1.02-.56-2.04-.79-3.07-.43-1.91-.88-3.83-1.19-5.76-.19-1.22-.13-2.48-.19-3.72.05-.01.1-.02.15-.03.05.1.12.19.15.3.99,3.36,2.61,6.44,4.44,9.4.85,1.38,2.02,2.46,3.56,3.07,1.61.64,2.26.25,2.33-1.47.1-2.59-.66-4.93-2.21-6.99-.68-.91-1.51-1.72-2.22-2.6-2.65-3.28-4.79-6.87-6.58-10.69-1.96-4.19-3.45-8.56-4.64-13.03-.15-.56-.32-1.13-.54-1.66-.17-.41-.42-.8-.71-1.14-.32-.38-.68-.39-1.05-.08-.28.24-.53.52-.73.83-.74,1.2-1.13,2.51-1.21,3.91-.02.29-.06.58-.09.86,0,0,.02-.02.02-.02-.26-.88-.59-1.75-.76-2.64-.37-1.98-.22-3.97.07-5.95.25-1.63.55-3.25.76-4.88.34-2.64.14-5.24-.85-7.77-.29,2.02-.52,4.05-1.3,5.97-.04-.83-.06-1.67-.12-2.5-.17-2.23-.33-4.47-1-6.61-.83-2.63-1.78-5.22-2.76-7.85-.81,1.57-1.33,3.26-2.5,4.65.04-1.44.11-2.87.13-4.31.02-1.42,0-2.85,0-4.46-1.18,2.4-2.06,4.77-3.7,6.95-.03-.35-.05-.51-.05-.67,0-1.22,0-2.44,0-3.66,0-.24-.09-.49-.16-.82-1.37,1.72-2.05,6.96-.63,11.21,1.3-1.82,2.13-3.79,2.87-5.84.47,3.94.52,7.91,1.71,11.72,1.23-2.63,1.68-5.4,1.73-8.31.07.16.15.32.21.49.79,2.22.91,4.52.76,6.84-.12,1.91-.27,3.82-.09,5.73.13,1.4.22,2.81.32,4.21.16,2.23-.06,4.4-.85,6.51-.66,1.77-1.29,3.54-1.48,5.48-.04-.12-.1-.24-.12-.37-.34-1.79-.13-3.55.25-5.3.43-1.95.6-3.9-.14-5.81-.42-1.09-.96-2.13-1.45-3.19-.75-1.61-1.51-3.22-2.27-4.82-.03-.07-.09-.12-.18-.25-.21.31-.41.58-.6.87-.62.93-1.23,1.86-1.86,2.78-1.06,1.55-1.63,3.27-1.85,5.12-.1.84-.24,1.68-.37,2.52-.31,2-1.19,3.79-2.1,5.56-.12.23-.3.43-.54.59.2-.84.41-1.68.59-2.53.43-2.07.4-4.19.29-6.28-.17-3.44.83-6.49,2.64-9.35.28-.44.47-.93.71-1.39l.06-.02h-.04c-1.49,1.37-2.98,2.73-3.95,4.59-.28-.74-.34-1.51-.04-2.2.45-1.01.95-2.02,1.58-2.93,1.23-1.76,1.8-3.69,1.97-5.8.14-1.82.31-3.65.61-5.45.2-1.17.68-2.28,1.03-3.43.13-.42.38-.83.17-1.39-1.35.64-2.55,1.62-4.17,1.63,1.93-2.7,2.53-5.8,3.12-8.93-2.68,3.99-6.16,7.03-10.34,9.28-.07-.04-.13-.09-.2-.13.1-.25.16-.52.3-.75,1.72-2.94,2.65-6.18,3.57-9.43.01-.05,0-.1-.02-.24-.6.4-1.17.77-1.74,1.15l-.12-.1c.05-.14.08-.28.14-.41,1.25-2.79,1.66-5.74,1.76-8.77.09-2.73.11-5.47.61-8.17.08-.41.21-.81.31-1.21.06,0,.11.01.17.02.03.64.04,1.27.08,1.91.16,2.89.45,5.77,1.19,8.58.09.33.19.67.34.97.29.57.71.7,1.24.34.41-.28.76-.65,1.12-1,1.21-1.19,2.38-2.43,3.63-3.57,1.93-1.75,3.3-3.86,4.41-6.18.18-.38.36-.77.55-1.15.02-.04.07-.07.23-.07-.4,1.37-.67,2.79-1.22,4.09-1.72,4-2.75,8.19-3.63,12.44-.44,2.15-1.09,4.26-1.72,6.37-.25.83-.71,1.59-1.07,2.39-.07.16-.12.34-.17.51h-.04s.02,0,.02,0c.81-.41,1.35-1.09,1.85-1.81,1.01-1.45,1.68-3.07,2.27-4.72.56-1.57,1.05-3.17,1.62-4.74.42-1.14.89-2.27,1.37-3.39,1.13-2.63,2.28-5.25,3.42-7.88.13-.3.28-.59.42-.89.06.01.12.03.19.04-.01.24,0,.49-.04.73-.69,4.51-1.49,9-2.56,13.43-.06.25-.05.52-.07.78l-.06.02h.04c1.61-3.08,2.66-6.37,3.61-9.69,1.68-5.86,2.43-11.85,2.35-17.94-.04-3.23.36-6.41,1.12-9.55.16-.64.27-1.29.31-1.98-.1.13-.21.25-.29.39-.57,1.05-1.14,2.1-1.7,3.15-1.05,1.97-1.49,4.13-1.95,6.29-.57,2.7-1.3,5.37-2.57,7.85-.16.32-.4.59-.6.89-.07-.02-.14-.04-.21-.06-.02-.19-.09-.38-.05-.55.48-1.93.21-3.85.04-5.78-.18-1.96-.34-3.92-.39-5.88-.07-3.25.61-6.38,1.8-9.4.81-2.05,1.66-4.08,2.49-6.12.06-.14.1-.29.11-.47-1.18,1.09-2.21,2.36-4,2.85.11-.29.13-.45.22-.56,1.39-1.72,2.26-3.72,2.93-5.8.76-2.35,1.41-4.73,2.15-7.08.64-2.02,1.33-4.03,2.04-6.04.28-.79.67-1.54,1.01-2.32.06-.05.13-.09.19-.14,0,0,.03-.02.03-.02v.04c-.08.04-.14.09-.21.13-.34.32-.72.61-1,.97-.74.99-1.44,2.02-2.27,3.01.17-.53.32-1.07.52-1.6,1.11-2.99,2.86-5.55,5.16-7.76,1.02-.97,2.02-1.97,2.93-3.04,1.19-1.39,2.29-2.86,3.43-4.29.14-.17.28-.34.42-.51.06.02.13.04.19.06,0,.38.06.76.02,1.14-.23,2.36-.59,4.69-1.33,6.95-.86,2.63-1.63,5.29-2.05,8.02-.41,2.65-.64,5.32-.94,7.99-.13,1.19-.22,2.38-.35,3.57-.03.29-.16.58-.27.96-.61-.52-.6-1.17-.79-1.73-.19-.58-.32-1.17-.54-1.75-1.01,8.37-.71,16.66,1.44,24.85-.05-5.23-.48-10.45-.16-15.7.15.9.33,1.8.46,2.71,1.06,7.63,3,15.04,5.5,22.31,1.14,3.31,2.1,6.68,3.17,10.02.4,1.24.77,2.49,1.52,3.58.16.24.36.45.54.68h.03s-.05,0-.05,0c.01-.08.06-.16.04-.23-.49-1.69-.46-3.46-.74-5.17-.23-1.4-.67-2.77-1.01-4.15-.02-.1-.04-.2-.08-.37,1.27,1.22,2.49,2.4,3.71,3.57,0,0,.02,0,.03,0-.02,0-.03-.01-.05-.02-.03-.17-.02-.37-.11-.51-1.8-3.02-2.57-6.33-2.82-9.78-.19-2.69-.86-5.23-2.03-7.65-.24-.49-.41-1.01-.53-1.57.97,1.39,2.01,2.7,3.43,3.7-.09-.17-.18-.35-.27-.51-1.72-2.88-2.76-6.02-3.52-9.27-.87-3.76-1.31-7.59-1.59-11.43-.23-3.12-.38-6.26-.47-9.39-.16-5.27.47-10.44,2.18-15.46.94-2.77,1.66-5.59,2.01-8.51.23-1.91.06-3.77-.63-5.56-.44-1.14-.94-2.25-1.49-3.34-.64-1.28-1.38-2.52-2.06-3.78-.53-.98-1.28-1.71-2.36-2.02-3.71-1.07-7.27-.79-10.49,1.47-1.41.99-2.37,2.42-3.3,3.86-1.02,1.58-1.98,3.21-2.98,4.81-.36.58-.77,1.12-1.15,1.68-.06-.03-.12-.06-.18-.09.14-.47.25-.96.44-1.41,1.6-3.92,4.02-7.25,7.33-9.87,2.01-1.59,4.42-2.27,6.98-2.35.28,0,.56,0,.86-.08-.34-.39-.81-.47-1.25-.47-1.19.02-2.4.02-3.57.19-1.91.28-3.43,1.38-4.83,2.64-2.66,2.4-4.66,5.27-6.1,8.56-2.38,5.42-4.76,10.84-7.29,16.2-1.47,3.12-3.27,6.08-5.33,8.86-.12.16-.17.36-.25.55,0,0-.01-.01-.02-.02,1.74-1.32,3.07-3,4.27-4.79,1.73-2.57,3.07-5.34,4.36-8.14,1.02-2.22,2.05-4.44,3.08-6.65.18-.38.39-.74.7-1.11.01.16.07.33.03.48-.28,1.05-.52,2.12-.88,3.14-2.07,5.8-5.09,11.1-8.7,16.06-.76,1.04-1.71,1.96-2.66,2.83-.47.43-1.13.71-1.75.89-.85.25-1.22-.04-1.47-.89-.37-1.25-.37-2.53-.26-3.8.4-4.55.86-9.1,1.29-13.64.23-2.41.37-4.82.66-7.22.34-2.79.79-5.57,1.2-8.36.41-2.84.79-5.68,1.24-8.51.47-2.91.99-5.81,1.52-8.71.27-1.44.59-2.87.23-4.34-.28-1.16-.77-2.2-1.58-3.09-1.11-1.22-2.45-1.69-4.02-1.09-.89.34-1.74.79-2.55,1.28-1.52.93-2.98,1.93-4.68,2.55-1.02.37-1.76,1.17-2.48,1.95-.96,1.03-1.91,2.07-2.9,3.06-1.41,1.4-2.29,3.04-2.43,5.05-.23,3.13-.5,6.25-.71,9.38-.41,6-1.67,11.82-3.72,17.48-1.3,3.59-2.58,7.2-3.73,10.85-1.12,3.55-2.75,6.83-4.6,10.04-1.76,3.05-3.75,5.91-6.18,8.47-2.44,2.57-4,5.67-5.1,9.01-.11.34-.25.67-.47.99-.26-4.43-.47-8.85-.4-13.28-.63.37-.82.96-1.08,1.5-.27.54-.48,1.11-.8,1.66,0-.13-.03-.26,0-.38.46-1.52.85-3.07,1.43-4.55.75-1.94,2.1-3.5,3.57-4.94,2.15-2.11,4.6-3.74,7.45-4.78,2.11-.77,3.93-2,5.21-3.9.32-.48.56-1.02.77-1.56.09-.23.02-.53.02-.98-.53.28-.93.43-1.26.67-2.22,1.66-4.7,2.75-7.33,3.61-1.53.5-2.99,1.24-4.44,1.96-1.43.71-2.54,1.82-3.44,3.13-1.86,2.69-3.13,5.66-4.31,8.68-1.15,2.92-2.3,5.83-3.57,8.69-.8,1.79-1.8,3.49-2.74,5.22-.34.61-.77,1.18-1.15,1.76,0,0-.05-.01-.05-.01h.04c.58-.36,1.16-.71,1.86-1.14-.62,1.47-1.2,2.83-1.76,4.19-.57,1.37-1.09,2.76-1.31,4.25.76-1.09,1.43-2.23,2.63-2.96-.38.78-.8,1.53-1.14,2.33-.75,1.78-1.47,3.58-2.19,5.38-.03.07,0,.15,0,.23-.03.02-.05.04-.08.06.02,0,.05,0,.05,0,.01-.02.01-.04.02-.07.33-.29.66-.59,1-.88.23-.2.46-.41.81-.72-.54,1.93-1.02,3.68-1.51,5.43.05.03.1.05.14.08.74-1.15,1.33-2.43,2.6-3.36-.06.28-.07.43-.13.55-.9,1.74-1.82,3.48-2.71,5.23-.27.54-.49,1.12-.66,1.71-.78,2.68-1.5,5.37-2.31,8.04-.49,1.62-1.12,3.2-1.69,4.81.34-.06.69-.27,1.01-.57.96-.88,1.92-1.76,2.88-2.64.19-.18.4-.34.67-.49-.52,2.33-.78,4.72-1.82,7.03.53-.11.87-.37,1.2-.66.81-.72,1.41-1.58,1.88-2.55.46-.95,1.11-1.75,1.89-2.44.19-.17.41-.3.71-.42-.57,3.33.65,6.29,1.73,9.43.36-1.3.26-2.54.55-3.8,1.28,3.13,2.52,6.16,3.81,9.31.21-.27.42-.49.56-.75,1.25-2.32,1.77-4.75,1.12-7.37-.4-1.59-.7-3.21-1.04-4.81-.72,1.19-1.14,2.67-2.25,3.7-.06-.02-.13-.03-.19-.05-.01-.25-.02-.5-.03-.74-.05-.9-.02-1.81-.15-2.7-.25-1.68.02-3.28.61-4.85.08-.22.15-.45.23-.67,0-.02-.02-.05-.06-.12-.92.89-1.49,1.97-1.95,3.3-.19-.27-.34-.41-.4-.58-.8-2.13-1.18-4.3-.5-6.55.42-1.4.87-2.79,1.28-4.19.38-1.34.53-2.71.49-4.32-.97,1.26-1.88,2.35-3.23,2.95.25-.32.5-.64.74-.97,1.06-1.48,1.48-3.22,1.9-4.95.15-.62.3-1.24.47-1.85.23-.8.58-1.54,1.15-2.16.64-.71,1-1.56,1.12-2.51.09-.68.19-1.37.32-2.05.06-.35.19-.69.29-1.03.07,0,.14.01.21.02.02.38.05.76.06,1.13.04,1.63-.3,3.22-.6,4.81-.39,2.09-.17,4.17.25,6.24.23-2.1.27-4.22,1.04-6.23.28-.73.53-1.48.79-2.22.07.01.15.02.22.04-.12,2.07-.33,4.13-.32,6.2,0,2.09.22,4.17.42,6.26.65-.91.89-1.92.96-2.98.09-1.4.2-2.81.31-4.21.03-.31.12-.62.32-.94.04.18.1.36.11.54.14,2.01.25,4.03.4,6.04.12,1.64-.16,3.22-.62,4.79-.56,1.94-1.1,3.88-1.54,5.85-.19.86-.12,1.79-.09,2.69.68-3.07,1.78-5.96,3.29-8.68.06.02.12.03.18.05-.12.55-.23,1.1-.37,1.64-.29,1.1-.54,2.23-.91,3.3-.83,2.38-.87,4.79-.4,7.23.06.34.11.68.26,1.03.14-1.44.19-2.9.44-4.32.26-1.46.69-2.89,1.12-4.31.43-1.41.96-2.79,1.45-4.18l.2.02c.05.19.13.37.16.56.46,4.06.6,8.1-.41,12.12-.39,1.57-.6,3.18-.88,4.78-.02.14,0,.29,0,.57.63-.81,1.2-1.49,2.26-1.8-.83,1.45-1.35,2.89-1.67,4.45.73-.46,1.46-.93,2.35-1.49-.07.3-.06.41-.11.48-1.21,1.57-1.77,3.39-1.96,5.31-.31,3.29-.83,6.53-2.08,9.62-.03.09,0,.2,0,.36,2.29-1.71,3.11-4.43,4.83-6.71.05.3.09.4.07.48-.48,2.1-.95,4.19-1.44,6.29-.43,1.82-1.07,3.56-1.98,5.2-.28.51-.5,1.06-.71,1.6-.14.37-.21.76-.2,1.2,1.07-1.55,2.19-3.06,3.2-4.65,1.02-1.6,1.43-3.51,2.46-5.1.07,0,.15.02.22.03.04.21.13.42.11.62-.19,3.47-.76,6.82-3.08,9.61-1.56,1.87-1.9,4.07-1.64,6.43.06-.19.14-.38.19-.58.61-2.4,1.8-4.46,3.58-6.19,2.84-2.75,4.37-6.15,4.85-10.06.29-2.4.63-4.79.94-7.19,0-.05-.03-.1-.07-.23-1.43,1.16-2.73,2.45-4.42,3.23.35-.37.7-.72,1.04-1.1,1.7-1.91,2.88-4.13,3.94-6.43.99-2.14,1.93-4.32,3.06-6.39.64-1.17,1.61-2.16,2.44-3.23.07-.09.19-.15.35-.19-1.98,3.14-2.8,6.61-2.98,10.29,2.2-4.22,5.22-7.83,8.39-11.31-.9,1.75-1.79,3.51-2.69,5.26l.18.13c.21-.21.42-.42.63-.64,1.61-1.71,2.71-3.72,3.61-5.87.61-1.46,1.41-2.85,2.15-4.26.12-.23.32-.41.49-.61,0,0-.02-.02-.02-.02,0,.1.01.22-.03.31-1.39,2.82-1.93,5.87-2.47,8.93-.31,1.77-.58,3.56-1,5.31-.62,2.58-1.94,4.8-3.8,6.69-.37.37-.83.66-1.24.98,0,0,.02.01.02.01.05-.19.08-.39.16-.56.59-1.27,1.2-2.54,1.78-3.82.1-.21.14-.44.08-.74-.17.18-.33.37-.5.55-2.51,2.65-4.12,5.76-4.88,9.33-.42,1.97-1,3.89-1.92,5.69.04.03.09.07.13.1,1.07-1.01,2.2-1.96,3.2-3.04.98-1.05,1.83-2.23,2.86-3.33-.08.42-.12.86-.25,1.27-.61,1.95-1.21,3.9-1.88,5.83-2.3,6.63-6.49,11.86-11.91,16.19-.51.41-1.05.79-1.57,1.18-.04.02-.08.04-.09.05.01-.01.04-.04.07-.07.94-.34,1.91-.61,2.82-1.02,3.66-1.67,6.75-4.09,9.34-7.17,1.58-1.87,3.1-3.77,4.1-6.04.68-1.53,1.19-3.11,1.51-4.77-.49.77-.95,1.56-1.47,2.3-.36.52-.8.99-1.22,1.46-.15.16-.38.25-.58.37v.02c1.17-1.76,1.92-3.71,2.55-5.71.37-1.19.76-2.38,1.14-3.56,1.04-3.21,3-5.83,5.24-8.28,1.94-2.12,3.77-4.32,5.05-6.93.94-1.92,1.6-3.93,2.09-6,.02-.1,0-.2,0-.4-.5.46-.91.9-1.37,1.28-1.11.91-2.23,1.8-3.35,2.69-1.53,1.23-3.05,2.46-3.84,4.37-.05-.02-.1-.04-.15-.06.07-.51.13-1.01.2-1.52.37-2.87,1.25-5.57,2.46-8.2,1.03-2.24,1.94-4.53,2.91-6.8.03-.06.08-.12.21-.3-.08,1.94-.62,3.63-1.18,5.31-.02.05-.04.11-.01.03.02.08,0,.01,0-.05.16-.15.37-.27.47-.45,1.64-2.79,2.92-5.73,3.45-8.94.21-1.28.29-2.58.43-3.88.03-.33.05-.67.07-1.07.77.78,1.05,2.1,1.53,6.88.61-.76,1.02-1.54,1.41-2.32.7-1.4.73-2.92.77-4.44.01-.53.03-1.06,0-1.59-.12-2.44.53-4.73,1.25-7.02.07-.23.18-.44.35-.65-.04.26-.08.51-.13.77-.66,3.35-.76,6.7.1,10.03.47,1.83.38,3.63-.37,5.38-.19.44-.35.89-.53,1.33-.53,1.36-.75,2.76-.56,4.22.07.52.07,1.05.24,1.61l1.23-3.39s.09,0,.14,0c.04.18.1.36.11.54.24,3.05-.41,5.97-1.41,8.82-1.39,3.92-3.64,7.3-6.51,10.29-.86.9-1.66,1.87-2.53,2.76-2.7,2.76-4.4,6.1-5.57,9.73-.15.47-.3.95-.4,1.44,2.19-1.57,3.6-3.75,4.81-6.09.05.02.09.05.14.07-.05.22-.09.44-.15.66-.82,2.76-1.91,5.4-3.38,7.89-1.18,1.99-2.37,3.96-3.87,5.74-1.62,1.92-3.58,3.47-5.5,5.06-1.57,1.3-3.1,2.66-4.56,4.1-1.52,1.51-2.65,3.33-3.53,5.27-1.14,2.51-2.22,5.04-3.34,7.62,1.83-1.64,3.02-3.71,4.27-5.77-.09.3-.17.6-.27.89-.12.32-.24.65-.39.96-.45.93-.91,1.86-1.39,2.78-1.36,2.6-2.24,5.38-3.19,8.18.14-.12.29-.23.43-.35.14-.13.26-.26.39-.4,1.5-1.66,2.47-3.64,3.39-5.65,1.14-2.48,2.45-4.85,4.45-6.75,1.13-1.08,2.36-2.06,3.54-3.09.2-.17.39-.33.56-.54-1.77.42-3.41,1.09-4.67,2.5.37-.99.83-1.91,1.59-2.62.91-.85,1.84-1.69,2.83-2.44,1.82-1.39,3.37-3,4.53-4.98.59-1.02,1.08-2.07,1.28-3.24.06-.37.22-.72.38-1.23.64,1.49.66,2.87.68,4.29.11-.4.23-.8.33-1.21.52-2.09.98-4.19,1.55-6.26.38-1.37,1.09-2.59,2.11-3.61.27-.27.6-.49.98-.7-1.62,3.74-1.83,7.49-.36,11.43.12-.68.22-1.25.31-1.82.35-2.35.85-4.65,1.96-6.78.93-1.78,2.2-3.25,3.93-4.29.27-.16.55-.29.92-.48-.04.17-.04.25-.07.29-1.55,1.59-2.36,3.52-2.54,5.71-.11,1.35-.13,2.7-.19,4.25.16-.29.25-.41.3-.54,1.29-3.66,3.55-6.62,6.53-9.06,1.23-1.01,2.52-1.95,3.76-2.95,1.26-1.03,2.37-2.21,3.24-3.6.12-.19.29-.33.44-.5.06.02.11.04.17.06,0,.35.04.71,0,1.06-.38,2.57-1.29,4.92-2.89,6.99-.89,1.16-1.83,2.28-2.72,3.44-.8,1.04-1.27,2.25-1.64,3.53,1.48-1.4,2.96-2.81,4.44-4.21.06.03.11.06.17.08-.06.34-.07.71-.2,1.03-.52,1.25-.98,2.53-1.63,3.71-1.63,2.96-2.01,6.12-1.76,9.42,0,.04.05.08.12.17.1-.17.21-.3.27-.46.6-1.67,1.2-3.35,1.8-5.02.12-.33.28-.64.42-.98.53.24.48.63.48.95-.03,1.75.02,3.51-.18,5.25-.42,3.75-.96,7.48-1.5,11.21-.16,1.09-.46,2.16-.63,3.36.07-.13.13-.27.21-.4,1.78-2.92,3.81-5.71,5.26-8.82.72-1.53,1.21-3.17,1.8-4.76.08-.22.13-.45.28-.66,0,.37.03.75,0,1.12-.28,3.03-1.3,5.85-2.61,8.56-.66,1.36-1.29,2.74-1.58,4.24-.04.18-.05.36,0,.58,2.02-2.94,4.28-5.73,5.56-9.29.42.95.4,1.78.42,2.59.08,3.22-.47,6.35-1.35,9.43-.62,2.17-1.24,4.34-1.85,6.51-.06.22-.08.44-.06.69,1.86-2.13,4.24-3.78,5.48-6.44.07.03.13.05.2.08-.02.32-.03.65-.08.97-.37,2.51-1.19,4.9-2.07,7.26-.96,2.56-1.99,5.1-2.54,7.79-.04.2-.07.41-.11.61.06.05.12.1.18.15.08-.15.17-.3.25-.44.04-.07.09-.13.14-.19,1.89-2.02,3.15-4.38,3.79-7.08.23-.97.65-1.89,1.35-2.67-.14.75-.3,1.49-.43,2.24-.61,3.46-.54,6.87.74,10.2.83,2.16,2.18,3.95,3.9,5.46,1.24,1.09,2.54,2.1,3.79,3.17,1.64,1.39,3.11,2.96,4.44,4.64l.02-.02c-.67-.41-1.34-.81-2-1.22-.67-.41-1.33-.84-2-1.24-.19-.11-.43-.14-.64-.2,0-.03-.01-.06-.02-.09,0,.01-.01.03,0,.03.01.02.03.03.04.04,1.1,1,2.19,1.99,3.29,2.99,2.02,1.84,3.79,3.93,5.48,6.07,1.26,1.6,2.03,3.47,2.69,5.37.05.14.05.3.09.62-.53-.71-.92-1.3-1.38-1.83-.26-.3-.62-.51-.94-.76,0,0,.01-.01.02-.02.7,1.19,1.43,2.37,1.71,3.75.18.86.34,1.72.49,2.58.34,1.86,1.02,3.57,2.25,5.04.08.1.15.22.21.33.02.04-.01.1-.04.22-.46-.02-.83-.27-1.19-.52-1.8-1.26-3.2-2.86-4.08-4.89-.09-.22-.2-.44-.3-.65-.02-.04-.07-.06-.13-.11.31,3.14,1.6,5.82,3.69,8.15-.05.05-.11.11-.16.16-.26-.14-.54-.25-.78-.41-2.18-1.39-3.82-3.28-5.01-5.56-.75-1.44-1.45-2.9-2.21-4.33-.59-1.12-1.31-2.17-2.22-3.22-.17,1.7-.29,3.29-.5,4.87-.21,1.58-.64,3.11-1.17,4.61-.06,0-.12,0-.19.01-.04-.23-.1-.46-.12-.7-.31-3.39-.8-6.75-1.54-10.07-.65-2.91-1.55-5.74-2.71-8.49-.03-.07-.08-.13-.21-.35-.07,1.11-.08,2.08-.2,3.03-.12.94-.37,1.86-.69,2.78-.03-.09-.09-.19-.1-.28-.24-3.29-1.27-6.4-2.1-9.56-.65-2.49-1.3-4.98-1.89-7.49-.21-.9-.22-1.84-.32-2.76-.01-.12-.07-.24-.12-.4-2.54,5.03-4.12,10.28-4.83,15.91,1.01-2.47,1.61-5.06,3.5-6.98.14-.14.31-.26.51-.42.03.15.08.23.06.3-.58,2.55-.39,5.13-.3,7.7.08,2.47.19,4.94-.17,7.4-.22,1.46-.7,2.83-1.25,4.19-.66,1.62-1.3,3.25-1.95,4.88-.08.19-.11.4-.08.65.52-.73,1.06-1.46,1.56-2.2.5-.75,1.02-1.49,1.44-2.29.43-.81.76-1.67,1.28-2.47-.14.86-.28,1.72-.43,2.57-.47,2.72-.93,5.45-.96,8.22-.03,2.65.51,5.22,1.07,7.8.48,2.18.94,4.36,1.28,6.56.19,1.25.13,2.54.19,3.92.1-.21.2-.35.22-.5.22-1.52.47-3.04.62-4.58.23-2.27.37-4.56.98-6.77.14-.51.32-1.01.53-1.5.1-.24.31-.45.47-.67l.21.05c.03.32.09.65.08.97-.08,2.06.15,4.09.83,6.04.48,1.38.96,2.76,1.44,4.14.84,2.41,1.79,4.78,2.27,7.3.3,1.57.51,3.15.38,4.75-.13,1.59-.31,1.67-1.93,2.01-.59.12-1.22.11-1.83.11-7.71-.04-15.41-.1-23.12-.14-1.94,0-3.88.04-5.82.09-.31,0-.63.09-.92.2-2.22.82-4.52,1.16-6.87,1.19-1.46.02-2.92,0-4.36-.29-.39-.08-.79-.07-1.19-.1-1.42-.12-2.52.46-3.41,1.54-.18.22-.41.39-.61.58l.02.02c.06-.25.09-.52.19-.76.88-2.29,2.01-4.45,3.49-6.42.13-.18.24-.38.45-.71-1.56.45-2.88,1.05-4.15,1.76-1.29.72-2.09,1.93-3.05,3,.2-1.07.65-2.04,1.17-2.97,1.01-1.83,2.5-3.22,4.13-4.48.22-.17.42-.39.63-.58,0,0,.02-.02.02-.02v.04c-.13,0-.27-.03-.39,0-2.22.64-4.42,1.36-6.51,2.36-1.36.65-2.5,1.6-3.59,2.62-.29.27-.58.54-.92.77.76-1.88,1.7-3.69,3.27-4.97,1.52-1.24,3.27-2.21,4.75-3.19-1.9.5-4.02.98-6.09,1.63-.86.27-1.69.79-2.4,1.37-1.17.95-2.22,2.05-3.32,3.08-.15.14-.28.3-.46.41,1.37-2.59,2.85-5.07,5.52-6.59,1.61-.92,3.18-1.93,4.76-2.9l-.02.02c-.74.04-1.48.01-2.21.12-1.47.21-2.95.41-4.38.77-1.86.47-3.43,1.53-4.85,2.8-.54.48-1.07.95-1.63,1.4-1.11.88-2.37,1.19-3.74.81-.74-.2-1.46-.49-2.17-.78-.96-.39-1.89-.84-2.85-1.24-1.56-.65-3.07-.54-4.47.44-1.11.77-2.21,1.57-3.25,2.43-1.27,1.05-2.47,2.17-3.7,3.27-.05.05-.08.12-.2.3,1.47-.72,2.82-1.38,4.33-2.12-.17.27-.24.42-.34.53-1.18,1.22-2.36,2.44-3.57,3.64-1.42,1.41-3.14,2.18-5.13,2.24-1.8.06-3.61.04-5.41,0-.46,0-.96-.14-1.37-.35-.37-.2-.64-.59-1.05-.98.77-.76,1.5-1.47,2.21-2.21.69-.72,1.33-1.48,1.91-2.35-.15.03-.3.04-.44.09-1.47.51-2.83,1.2-4.02,2.21-.18.15-.38.27-.58.41l.02.02c.33-.93.99-1.64,1.69-2.26,1.19-1.05,2.48-2,3.71-3,.45-.36.86-.76,1.24-1.2-2.45.44-4.41,1.7-6.08,3.5.98-2.36,2.57-4.17,4.79-5.46-1.03-.43-2.31-.17-4.54.91.51-.92,1.21-1.57,2-2.06,1.04-.64,2.13-1.19,3.2-1.79.87-.49,1.74-1.01,2.71-1.58-.96-.11-3.17.39-4.41.89-1.38.56-2.46,1.51-3.42,2.64.11-.84.52-1.53,1.04-2.11.85-.95,1.76-1.84,2.67-2.73.89-.87,1.83-1.7,2.74-2.55.15-.14.28-.31.37-.52-2.28.72-4.43,1.64-5.9,3.86-.21-.52-.08-.86.04-1.18.8-2.17,1.85-4.18,3.62-5.73,1.66-1.47,2.61-3.32,3.03-5.47.06-.31,0-.65,0-1.1-.97.31-1.43,1.01-1.98,1.59-.54.57-1.05,1.16-1.64,1.69,1.21-4.03,3.8-7,7.44-9.31-2.25-.63-4.02.21-5.86,1.14.07-.69.37-1.12.71-1.52,1.37-1.63,2.98-2.95,4.91-3.86.69-.33,1.38-.67,2.24-1.08-1.11-.24-2.14-.14-3.05-.88.51-.28.91-.53,1.34-.72,1.73-.75,3.05-2,4.23-3.43.68-.82,1.39-1.61,2.12-2.38,1.05-1.11,2.29-1.97,3.8-2.49-1.43-.61-4.08-.14-6.37,1.79,1.02-2.71,2.92-4.4,5.33-5.6-.88-1.17-5.07-3.04-7.12-3.18.33-.39.76-.38,1.15-.42,1.17-.11,2.27.17,3.34.59.12.05.25.1.36.16,2.63,1.35,5.37,2.42,8.17,3.37.27.09.53.22.79.33,0,.06-.01.13-.02.19-.37.01-.75.02-1.12.04-1.46.08-2.92.11-4.36.26-.64.07-1.25.36-1.85.68.56,0,1.11,0,1.67,0,1.88.04,3.67.54,5.48.98,1.56.38,3.13.62,4.72.18.4-.11.8-.25,1.39-.44-1.74,2.22-3.3,4.36-6.03,5.24,1.93,1.03,4.05,1.23,6.14.57-.8,2.56-3.03,3.61-5.07,4.99.72.2,1.31.1,1.89-.03.8-.18,1.6-.41,2.4-.6,1.95-.46,3.78-.24,5.5.87,1.99,1.28,4,2.52,6.01,3.76,1.56.97,3.16,1.86,5.05,2.03.1,0,.19.08.44.19-.34.21-.58.4-.84.51-1.45.65-2.98.69-4.54.57-.76-.06-1.53-.1-2.36-.16,1.31,1.05,3.47,2.8,7.43,2.16-1.63,1.27-3.32,1.47-5.18,1.05,1.31,1.9,3.55,2.38,5.31,1.12.9-.64,1.68-1.45,2.53-2.19-.05.15-.08.33-.16.5-.93,1.94-2.21,3.62-3.73,5.13-.68.66-1.48,1.12-2.37,1.42-.22.07-.44.15-.77.27.72.41,1.4.43,2.07.41,2.09-.07,3.79-1.01,5.16-2.51.82-.9,1.49-1.93,2.2-2.93.56-.78,1.05-1.6,1.61-2.37,1.06-1.44,2.43-2.52,4.05-3.27.23-.11.46-.23.79-.39-.85-.46-1.67-.73-2.52-.69-1.21.06-2.42.24-3.63.38-.71.09-1.42.23-2.13.31-.33.04-.67,0-1,0l-.07-.19c1.21-1.03,2.43-2.07,3.7-3.16-1.74-.62-3.52-.75-5.33-.99.52-.65,1.62-1.03,4.5-1.58-1.7-.27-3.27-.36-4.85-.27-1.55.09-3.1.32-4.65.17-.03-.06-.06-.13-.09-.19.22-.19.41-.41.65-.57.85-.55,1.71-1.08,2.56-1.62.21-.14.41-.31.56-.55-.26.1-.53.2-.79.31-1.54.66-3.15.92-4.82.89-.33,0-.71.05-.91-.5,1.05-.67,2.11-1.34,3.17-2.02v-.02s.01.04.01.04c-.23.03-.48.02-.7.09-1.85.59-3.75.71-5.67.55-.33-.03-.65-.13-.97-.2-.01-.07-.03-.13-.04-.2.25-.15.5-.33.76-.45,1.3-.59,2.58-1.23,3.71-2.16-.28.11-.57.21-.85.32-1.74.66-3.53,1.17-5.37,1.45-.28.04-.58-.02-.87-.04-.01-.06-.02-.13-.03-.19,1.21-.72,2.49-1.37,3.63-2.2,1.13-.82,2.14-1.81,3.2-2.73.05-.07.11-.13.16-.2l.04-.02-.02.04c-.05.07-.11.13-.16.2ZM317.69,329.49v.06s0-.04,0-.04c-.07-.04-.13-.08-.2-.12-.08-.16-.14-.33-.23-.49-.61-1.09-1.28-2.15-1.83-3.26-1.09-2.22-1.6-4.61-1.78-7.06-.17-2.26-1.01-4.09-2.98-5.34-2.17-1.37-3.62-3.32-4.49-5.72-.09-.25-.21-.49-.33-.73-.05-.11-.14-.2-.21-.3-.06.02-.11.03-.17.05.28,1.48.5,2.97.86,4.43.36,1.49,1.25,2.74,2.18,3.95-.16,0-.26-.04-.35-.09-1.63-.92-2.65-2.33-3.28-4.05-.6-1.62-1.26-3.21-2.35-4.58-.96-1.2-1.9-2.42-2.85-3.63h-.03s.05,0,.05,0c0,.21-.03.43.03.61.42,1.17.87,2.33,1.31,3.5.06.15.1.3.15.45-.3-.12-.51-.28-.7-.46-2.04-1.98-3.32-4.38-3.9-7.16-.39-1.88-.35-3.75.08-5.61.07-.3.23-.59.41-1.04.17.42.26.64.35.86,1.15,2.64,2.77,4.94,5.27,6.42,2.53,1.5,4.61,3.39,6.08,5.94.05.09.11.18.18.26.87.99,1.75,1.98,2.62,2.97.02.01.03.03.05.04,0,0,.02,0,.03-.01-.03,0-.07,0-.1,0-.08-.21-.15-.42-.25-.62-.4-.8-.92-1.57-1.2-2.41-.67-2.06-1.55-4-2.76-5.79-.27-.39-.5-.81-.72-1.24-.23-.43-.43-.88-.65-1.32l.15-.1c.87.84,1.74,1.69,2.61,2.53-.05-.3-.18-.52-.34-.72-.89-1.12-1.74-2.27-2.7-3.33-1.7-1.88-3.19-3.89-4.23-6.22-.1-.24-.17-.49-.25-.74h-.02c.53.52,1.05,1.03,1.59,1.52,1.81,1.66,3.92,2.91,5.95,4.26,3.64,2.42,6.85,5.29,9.11,9.09.06.1.18.17.27.26,0,.02,0,.04,0,.06,0,0,.03,0,.04.01l-.07-.05c-.08-.46-.13-.94-.26-1.39-.84-3.01-2.25-5.77-3.81-8.46-1.29-2.22-2.6-4.43-4.33-6.37-2.02-2.26-4.31-4.23-6.48-6.34-.06-.06-.19-.04-.28-.06-.02-.09-.05-.18-.07-.26-.06.05-.13.1-.19.15.09.03.19.07.28.1.06.11.11.25.19.34,1.89,2.11,3.29,4.56,4.75,6.96.06.1.09.21.19.44-1.08-.44-1.92-.95-2.65-1.66-.34-.33-.69-.65-1.03-.97-.07-.05-.13-.11-.2-.16v-.05s.02.03.02.03l.2.16c0,.05,0,.11.03.15,1.34,2.08,2.82,4.05,4.6,5.77.62.6,1.27,1.17,1.9,1.75-.96-.29-1.85-.67-2.71-1.12-1.87-.97-3.59-2.15-5.02-3.73-2.1-2.33-3.43-5.09-4.4-8.04-1.29-3.9-1.93-7.93-2.27-12.01-.28-3.36-1.32-6.48-2.98-9.4-.13-.23-.35-.41-.53-.61-.02-.05-.03-.1-.05-.15.02.04.05.09.07.13.79,2.16,1.22,4.39,1.27,6.69.02.72.06,1.44.03,2.15-.13,2.59.4,5.07,1.19,7.51.16.49.27,1,.41,1.49-.28-.16-.43-.37-.57-.59-1.73-2.64-2.66-5.59-3.27-8.66-.37-1.85-.78-3.69-1.18-5.53-.06-.26-.19-.51-.29-.76-.05.01-.11.03-.16.04.02,2.28-.05,4.56.25,6.83.3,2.26.95,4.43,1.97,6.5-.46-.33-.84-.69-1.17-1.1-.33-.41-.62-.86-.92-1.3-.27-.41-.52-.85-.78-1.27-.1.15-.11.23-.1.3.37,2.56,1.53,4.72,3.34,6.56,1.36,1.38,2.75,2.74,3.77,4.41.51.85.98,1.73,1.21,2.74-1.5-2.26-3.9-3.36-6.09-4.76.34.72.7,1.42,1.18,2.02,1.48,1.84,3.01,3.64,4.52,5.46.84,1.01,1.56,2.09,2.04,3.31.49,1.21.68,2.47.46,3.79-.11-.12-.18-.25-.23-.39-.81-2.15-2.16-3.88-4-5.25-1.4-1.05-2.78-2.14-4.17-3.21-.1-.08-.21-.13-.46-.28.83,3.15,1.98,6.11,1.78,9.31-.54-1.02-1.07-2.04-1.61-3.06h-.04s.06-.01.06-.01c0,.31-.03.63.02.93.47,2.51,1.38,4.85,2.68,7.04,1.08,1.8,2.22,3.56,3.32,5.35,1.15,1.86,2.1,3.81,2.8,5.89.08.25.14.5.21.75-.18-.08-.26-.19-.32-.31-1.68-3.25-3.82-6.18-6.04-9.07-1.7-2.21-3.38-4.44-4.94-6.75-3.15-4.64-4.82-9.8-4.97-15.41-.07-2.73-.01-5.47-.02-8.2,0-1.08,0-2.16,0-3.24-.71,2.06-.96,4.27-2.11,6.17-.02-1.75.05-3.49.09-5.23.04-1.76-.06-3.51-.35-5.27-1.55,6.49-2.64,12.97-1.31,19.61.37-2.5.81-4.98,1.7-7.47,0,1.04.03,1.94,0,2.83-.15,4.08.03,8.13,1.15,12.09.82,2.89,1.7,5.75,2.21,8.72.65,3.78,2.19,7.19,4.29,10.38,1.52,2.32,3.36,4.38,5.11,6.52.17.21.31.45.51.73-.65.17-1.1-.09-1.58-.2-.87-.21-1.74-.5-2.63-.6-1.46-.17-2.23.42-2.45,1.86-.12.78-.13,1.59-.04,2.37.52,4.7,2.25,8.94,4.99,12.77,1.3,1.82,2.77,3.5,4.55,4.88.32.25.63.53,1.13.55-.03-.22-.03-.38-.07-.53-.09-.33-.18-.67-.3-.99-.84-2.18-1.23-4.45-1.33-6.77-.11-2.71-.17-5.42-.9-8.06-.02-.06.02-.13.07-.34.19.37.33.62.46.87,1.08,2.21,1.77,4.56,2.14,6.98.49,3.21,1.65,6.14,3.52,8.79,1.01,1.43,2,2.88,2.97,4.34,1.38,2.1,2.49,4.33,3.02,6.81.16.74.2,1.48,0,2.28-.57-.87-1.06-1.69-1.63-2.45-.58-.76-1.32-1.38-2.18-1.83.98,2.94,1.54,5.98,2.97,8.74-.47-.4-.93-.81-1.22-1.32-.71-1.24-1.39-2.51-1.98-3.81-.7-1.55-1.36-3.12-2.38-4.5-.11-.15-.25-.28-.32-.37.46,1.87.95,3.77,1.4,5.68.71,3.01,2.05,5.69,4.23,7.91,2.98,3.06,5.6,6.38,7.66,10.14.54.99,1.38,1.81,2.09,2.7.11.14.29.22.53.41-.67-1.34-1.26-2.56-1.89-3.76-.84-1.6-1.68-3.2-2.57-4.77-.88-1.55-1.82-3.06-2.73-4.59v.02c.23.19.5.35.7.57.84.96,1.66,1.94,2.5,2.9,1.02,1.16,2.08,2.28,3.44,3.06.61.35,1.25.63,1.87.95-.02-.26-.11-.38-.22-.49-1.61-1.64-2.92-3.5-4.06-5.5-1-1.75-2.11-3.44-3.17-5.15-.54-.87-1.08-1.74-1.62-2.61.05-.03.09-.06.14-.1.59.7,1.16,1.41,1.77,2.09.64.71,1.31,1.39,2,2.06.65.62,1.33,1.21,2,1.81-.51-.91-1.13-1.7-1.71-2.53-1.72-2.46-2.84-5.22-4.03-7.94-.88-1.99-1.74-3.99-2.58-6-.95-2.3-2.29-4.38-3.67-6.42-2.08-3.06-3.53-6.33-3.92-10.06-.33-3.14-.77-6.27-1.22-9.4-.62-4.27-2.6-7.94-5.13-11.35-.25-.34-.56-.64-.87-.93-.18-.17-.41-.27-.67-.44-.24.6-.03,1.05.12,1.47.58,1.57,1.21,3.12,1.77,4.69.32.88.52,1.8.58,2.74-.46-.57-.81-1.2-1.26-1.74-1.36-1.63-2.73-3.26-4.17-4.82-1.92-2.09-2.95-4.48-3-7.34-.03-1.89-.34-3.76-1.15-5.5-.9-1.92-1.39-3.95-1.64-6.05-.09-.77-.2-1.54,0-2.48.1.25.14.34.18.43,1.89,4.95,4.39,9.54,7.69,13.7,1.35,1.7,2.67,3.46,3.73,5.35,2.39,4.24,3.91,8.83,4.77,13.62.49,2.69.86,5.4,1.26,8.1.43,2.83,1.48,5.41,3.1,7.77,1.15,1.69,2.29,3.39,3.29,5.18,1.31,2.34,2.49,4.75,3.69,7.15,1.14,2.26,2.3,4.49,3.96,6.43.17.2.34.41.52.61.02-.27-.06-.46-.14-.65-1.37-3.02-2.76-6.04-4.11-9.07-1.67-3.74-3.26-7.5-4.3-11.47-1.01-3.85-2.03-7.7-3.45-11.43l-.02.02c.19.19.45.35.55.58.92,1.97,1.86,3.93,2.7,5.94,1.41,3.35,2.65,6.78,4.45,9.95.71,1.24,1.46,2.45,2.46,3.59-1.25-3.47-2.44-6.86-3.69-10.24-1.26-3.38-2.58-6.74-3.87-10.12,2.24,2.34,3.8,5.12,5.33,7.92-.39-1.66-.87-3.29-1.28-4.93-.5-2.03-1.31-3.92-2.46-5.67-.8-1.22-1.59-2.45-2.35-3.69-.28-.46-.48-.97-.72-1.46,1.06.97,1.98,2.03,2.99,2.99,2.15,2.04,3.96,4.35,5.63,6.79.97,1.42,2.08,2.75,3.15,4.11.13.17.35.28.53.42.06.04.12.07.18.11ZM270.66,167.03s-.06-.01-.06-.01c0,0,.04,0,.08,0,.07.27.08.57.21.81.34.63.72,1.24,1.12,1.83,1.18,1.77,2.37,3.52,3.56,5.28.14.21.3.4.58.75.03-.4.08-.6.06-.79-.29-2.22-.83-4.38-1.75-6.42-.22-.5-.57-.96-.96-1.35-.31-.31-.69-.65-1.33-.47.19.49.35.93.55,1.36.85,1.77,1.72,3.53,2.57,5.3.11.23.19.48.29.72-.02,0-.04,0-.06,0-1.62-2.33-3.23-4.66-4.85-6.99ZM211.96,382.06c-.16-.02-.32-.06-.47-.05-1.44.14-2.79-.23-4.12-.75-.47-.18-.94-.36-1.43-.5-1.09-.34-2.19-.42-3.29-.04-.1.04-.23,0-.46,0,.64-.85,1.25-1.58,2.06-2.11,1.3-.85,2.69-1.49,4.2-1.86.18-.04.35-.13.68-.26-2.39-.84-4.47-.9-6.37.77-.9.79-1.86,1.5-2.83,2.2-.48.34-1.05.56-1.57.84-.03-.18,0-.26.05-.3,1.2-1.04,2.11-2.31,2.87-3.69.31-.56.66-1.09,1.01-1.62.93-1.36,2.04-2.52,3.62-3.12.09-.03.19-.04.29-.06-.06-.06-.11-.13-.17-.19-1.95.03-3.79.43-5.28,1.82-.82.76-1.61,1.54-2.39,2.34-1.05,1.07-2.17,2.04-3.6,2.57-.11.04-.2.13-.3.2,1.64.02,3.11-.58,4.61-1.09-1.07,1.28-2.34,2.28-3.73,3.12-1.12.67-2.27,1.28-3.4,1.92-.18.1-.34.24-.51.36,1.4.18,2.73.27,4.05.3,1.33.03,2.66,0,4.03,0-.09.06-.14.12-.21.15-2.97,1.41-5.18,3.61-6.5,6.62-.66,1.5-1.1,3.09-1.6,4.66-.11.36-.2.78.2,1.23.35-.23.75-.43,1.07-.72.46-.43.88-.92,1.29-1.41,1.16-1.38,2.29-2.79,3.68-3.97,2.53-2.15,5.42-3.21,8.75-2.88,1,.1,2,.29,2.99.47,2.42.46,4.51-.22,6.37-1.77.12-.1.21-.23.42-.46-1.09.36-2.01.69-2.94.98-1.23.38-2.48.36-3.67-.12-1.18-.48-2.36-.98-3.49-1.56-1.45-.75-2.8-.71-4.12.24-.05.04-.13.05-.31.11.93-1.34,2.06-2.14,3.61-2.13.87,0,1.75.13,2.6.31,1.52.33,2.95.2,4.33-.52,0,0,0-.01.01-.02,0,.01-.02.03-.03.04ZM248.43,399.68c-.08.1-.17.2-.24.31-1.43,2.18-3.37,3.8-5.57,5.16-.3.18-.6.43-1.13.15,1.19-1.53,2.3-3.06,2.84-4.89.53-1.79,1.05-3.58,1.57-5.36-.57.28-1,.63-1.44.96-1.39,1.05-2.94,1.7-4.68,1.83-.27.02-.55-.04-1.02-.07.35-.43.57-.71.79-.98.63-.79,1.35-1.52,1.86-2.37,1.02-1.73,1.92-3.53,2.89-5.35-.17.03-.32.03-.46.08-1.37.43-2.75.82-4.09,1.32-2.28.84-4.28,2.07-5.76,4.08-1.4,1.9-2.54,3.92-3.15,6.21-.24.9.12,1.26,1.04,1.11.74-.12,1.34-.53,1.86-1.03.98-.96,1.91-1.98,2.87-2.97.17-.17.37-.31.56-.47l.02-.02c-1.04,3.1-3.11,5.54-5.16,8,2.85-1.15,4.98-3.3,7.37-5.12-.84,2.26-2.38,4.09-3.64,6.08,2.69-1.67,5.12-3.62,6.92-6.31.06.14.11.19.09.22-.17.45-.33.9-.52,1.34-1.07,2.52-2.13,5.05-3.81,7.24-.69.9-1.4,1.8-2.1,2.69-.02.01-.04.02-.05.04,0,0,0,.03,0,.04,0-.03.02-.06.03-.09.17-.04.36-.04.51-.12,1.99-1.08,3.88-2.31,5.56-3.84.12-.11.26-.2.5-.37-1.78,3.95-4.56,6.89-7.7,9.57.65-.19,1.24-.45,1.83-.73,2.45-1.15,4.57-2.7,5.96-5.09.05-.08.15-.12.23-.18l-.02-.02c0,.16.02.32-.03.46-.49,1.62-1.11,3.18-1.96,4.65-.81,1.41-1.87,2.61-2.96,3.79,0,0-.01-.01-.02-.02.51-.24,1.06-.43,1.52-.74,3.01-2.04,4.9-4.94,6.29-8.23,1.4-3.31,2.04-6.8,2.43-10.35.02-.2-.03-.41-.05-.62,0,0,.01.01.02.02ZM299.13,250.97s.01-.01.02-.02c.67,1.7.96,3.47,1.14,5.27.26,2.53,1.08,4.86,2.5,6.98.56.84,1.14,1.66,1.72,2.49,1.28,1.83,2.47,3.72,3.19,5.86.09.28.16.56.23.84-.05.02-.09.03-.14.05-.81-.84-1.61-1.69-2.42-2.53-.05.04-.1.08-.15.12,1.21,2.26,2.55,4.46,3.58,6.8,1.03,2.37,2.02,4.79,2.31,7.55-.17-.21-.28-.32-.35-.44-1.6-2.85-3.72-5.3-5.91-7.69-1.4-1.53-2.72-3.13-3.65-5.01-.05-.09-.13-.17-.19-.25-.05.02-.09.05-.14.07.53,1.48,1.06,2.96,1.65,4.6-.37-.06-.59-.05-.74-.13-.3-.17-.6-.36-.83-.61-.82-.87-1.61-1.76-2.41-2.65,0,0-.01-.01-.02-.02.01,0,.03.02.04.03.2.54.36,1.1.62,1.61,1.67,3.3,3.97,6.16,6.46,8.85,2.3,2.5,4.73,4.88,7.12,7.3,2.26,2.3,4.43,4.66,5.9,7.57.03.05.13.06.2.09.03-1.84-.66-5.09-1.44-7-.78-1.9-1.86-3.64-2.98-5.35-1.09-1.67-2.22-3.31-2.99-5.16-.23-.55-.38-1.13-.57-1.7.06-.03.12-.05.18-.08.38.57.73,1.14,1.13,1.69.4.56.83,1.11,1.28,1.63.45.52.92,1.03,1.42,1.5.48.46,1,.87,1.5,1.3.04-.04.08-.08.12-.13-1.27-2.01-2.21-4.17-2.91-6.43-.55-1.8-1.04-3.62-1.55-5.44-.86-3.11-1.89-6.15-3.67-8.87-1.07-1.64-2.21-3.25-3.3-4.88-.25-.37-.58-.7-.63-1.25,2.99,1.88,4.91,2.61,6.87,2.68-1.72-1.46-3.53-2.93-5.26-4.49-1.75-1.58-3.25-3.41-4.71-5.27.03.24.1.46.15.68.14.65-.15.93-.78.7-.34-.13-.63-.38-.95-.57-.21-.12-.44-.23-.66-.34ZM263.6,341.03c-.46.54-.89,1.12-1.4,1.61-.62.6-1.34,1.02-2.29.94.04-.12.04-.21.09-.26,1.23-1.6,1.89-3.45,2.19-5.41.32-2.12.51-4.27.77-6.4.11-.92.28-1.83.44-2.83-.11.14-.17.19-.21.26-1.47,2.8-3.43,5.23-5.66,7.46-2.77,2.76-5.08,5.85-6.75,9.4-.08.18-.14.37-.26.67.24-.14.36-.19.46-.26,1.38-.85,2.49-1.97,3.44-3.28.53-.73,1.04-1.48,1.61-2.18.3-.37.69-.65,1.12-1.05-.76,1.71-1.45,3.28-2.17,4.84-.62,1.36-1.41,2.62-2.51,3.66-.68.64-1.36,1.27-2.08,1.86-2.29,1.85-4.07,4.1-5.39,6.72-.12.23-.26.44-.39.67-.06-.02-.12-.04-.18-.07.59-2.76,1.54-5.41,2.45-8.25-4.2,4.21-5.81,14.01-3.01,18.4-.42-3.22-.19-6.19,1.22-8.98,1.43-2.83,5.01-6.35,6.12-6.62-.77,1.58-1.36,3.18-1.77,5,2.48-2.66,4.78-5.27,6.06-8.64.13.14.19.17.2.21.02.16.03.32.03.48,0,3.12-.56,6.13-1.8,9-.8,1.85-1.66,3.68-2.47,5.53-.6,1.38-1.08,2.81-1.43,4.47,1.55-2.26,2.99-4.36,4.48-6.54.08,1.23.03,2.37-.26,3.47-.42,1.59-.98,3.14-1.48,4.7-.51,1.59-1.16,3.15-1.51,4.77-.49,2.26-.31,4.63-.94,6.89.13-.08.22-.18.29-.28,1.46-2.17,2.65-4.48,3.56-6.93,1.57-4.21,3.16-8.4,5.28-12.37,1.15-2.16,2.39-4.27,4.21-5.95.04-.03.03-.12.07-.28-2.86.87-4.52,3.01-6.14,5.26.11-1.65.19-3.21.34-4.77.1-.97.26-1.95.49-2.9.49-2.09,1.49-3.97,2.59-5.79,1.05-1.73,2.04-3.49,2.48-5.49.05-.25.05-.51.08-.77.03-.01.07-.02.1-.03-.02,0-.04-.01-.04,0-.02.02-.03.04-.04.06ZM254.96,326.16c-.7.42-1.4.87-2.12,1.26-.89.48-1.81.9-2.7,1.37-1.48.79-2.72,1.85-3.52,3.36-.08.15-.19.29-.3.46-.06-.1-.11-.14-.11-.18-.01-.13-.01-.27,0-.4.09-2.75,1-5.19,2.69-7.35.36-.46.73-.91,1.1-1.37.83-1.04,1.42-2.22,1.51-3.54.11-1.5.07-3.02.08-4.53,0-.01-.08-.03-.08-.03-.49,1.15-.94,2.31-1.48,3.43-.53,1.1-1.12,2.17-2.12,3,.09-3.17-1.37-5.81-2.56-8.56-.08,3.05-.22,6.06-2.32,8.56.49-1.82.68-3.64,0-5.61-.27.67-.46,1.21-.7,1.74-1.02,2.29-2.16,4.51-4.05,6.24-.86.79-1.73,1.57-2.55,2.4-1.49,1.51-3.09,2.94-4.39,4.61-1.56,2.01-2.87,4.21-4.24,6.35-.92,1.43-1.57,3.02-2.74,4.29,0,.01.03.07.07.13.22-.15.44-.29.66-.44,1.95-1.34,3.57-3.02,4.95-4.92,1.39-1.91,2.7-3.88,4.02-5.84,1.2-1.76,2.72-3.11,4.73-3.89.42-.16.83-.36,1.24-.54,2.05-.88,3.56-2.38,4.74-4.23.26-.41.44-.88.67-1.36.91,4.3-2.32,14.42-5.59,17.3.47-1.36,1.02-2.82,1.47-4.31.35-1.17.52-2.39.34-3.62-.09-.6-.28-.76-.86-.59-.48.13-.95.34-1.38.6-2.71,1.62-4.7,3.94-6.32,6.61-1.59,2.61-2.62,5.45-3.44,8.37-.67,2.38-1.36,4.75-2.57,6.93-.2.36-.4.72-.6,1.08.89-.54,1.57-1.26,2.16-2.07,1-1.37,1.98-2.77,2.95-4.16,1.45-2.08,3-4.06,4.93-5.72.2-.17.42-.32.62-.48.06.05.13.1.19.15-1.21,2.3-1.82,4.78-2.35,7.3.16-.18.29-.37.4-.57,1.22-2.06,2.41-4.13,3.66-6.17,1.16-1.89,2.6-3.56,4.33-4.96.26-.21.57-.37.85-.55.03.3-.02.48-.09.64-1.85,4.17-3.23,8.48-4.12,12.95-.56,2.82-.96,5.66-.96,8.54,0,.24.03.47.05.71.31-.7.47-1.4.68-2.08,1.14-3.62,2.75-7.03,4.85-10.18,2.35-3.54,4.82-7,7.23-10.5.12-.17.22-.36.32-.54-1.92.88-3.51,2.1-4.65,3.86.09-1.37.54-2.57,1.48-3.54.79-.82,1.63-1.6,2.47-2.37,1.01-.93,1.86-1.98,2.34-3.27.41-1.09.75-2.21,1.11-3.32.04-.14,0-.3-.02-.46l.05.02-.03-.02ZM213.85,400.49s.02.02.02.02c.08-.27.12-.57.25-.82,1.55-2.99,4.04-4.62,7.34-5.07.33-.04.66-.11.99-.17-.49-.17-.96-.23-1.43-.29-2.28-.29-4.25.38-5.9,1.98-.63.61-1.27,1.21-1.93,1.79-1.01.89-2.12,1.59-3.47,1.85,1.23-.66,2.12-1.67,2.93-2.77,1.33-1.82,2.61-3.68,4.37-5.13.01,0,0-.05,0-.12-.16.02-.31.04-.46.07-1.2.21-2.4.44-3.61.64-1.05.17-2.07.06-3.21-.34.58-.15,1.02-.24,1.44-.39.67-.24,1.36-.47,1.98-.81.58-.32,1.05-.8,1.05-1.55-.1-.07-.16-.14-.23-.15-.32-.03-.63-.06-.95-.05-1.79.06-3.55-.06-5.26-.67-.7-.25-1.42-.43-2.14-.62-2.77-.76-5.25-.17-7.47,1.62-1.37,1.1-2.31,2.55-3.19,4.04-1.22,2.06-2.46,4.1-3.98,5.96-.35.43-.64.91-.93,1.39-.19.32-.32.67-.02,1.07.26-.03.52-.06.78-.1,1.82-.29,3.44-1.05,4.97-2.04.29-.19.58-.36.88-.54-.85,1.19-1.77,2.25-2.59,3.38-.82,1.13-1.54,2.33-2.3,3.51.22.05.31,0,.4-.05,1.24-.71,2.15-1.8,3.17-2.76,1.08-1.02,2.19-2.01,3.35-2.92.74-.58,1.66-.89,2.67-1.11-.08.16-.1.24-.15.29-1.68,1.43-2.9,3.24-4.08,5.07-1.33,2.07-2.92,3.92-4.87,5.43-.12.1-.23.22-.45.45.27-.08.37-.1.46-.13,2.48-.88,4.71-2.18,6.75-3.85,1.07-.87,2.18-1.69,3.31-2.48.72-.5,1.53-.84,2.37-.88-.81.68-1.73,1.28-2.44,2.07-2.64,2.9-5.61,5.42-8.74,7.77-.2.15-.37.36-.55.54-.02,0-.04,0-.06,0-.01,0-.01.03-.02.04.02-.02.04-.05.06-.07.23-.07.47-.1.67-.21,1.63-.89,3.25-1.79,4.87-2.7.58-.32,1.14-.68,1.73-.99,1.29-.68,2.67-.94,4.09-.58,1,.25,1.96.64,2.92,1.02,1.01.4,1.98.91,3,1.27,1.26.45,2.43.15,3.38-.79.54-.54,1.02-1.16,1.46-1.78.93-1.32,2-2.5,3.43-3.26,1.17-.62,2.41-1.11,3.61-1.66,1.23-.56,2.47-1.1,3.67-1.7.44-.22.85-.56,1.2-.91.8-.79.7-1.49-.25-2.06-.82-.5-1.73-.7-2.67-.66-1.14.05-2.28.14-3.4.33-.98.17-1.93.5-3.06.8,1.08-1.2,2.33-1.9,3.62-2.53-.04-.07-.05-.1-.06-.1-2.67.14-5.04.95-6.87,3.01-.14.15-.29.29-.44.43ZM207.79,304.81c.89-.65,1.29-1.65,1.84-2.55.1-.16.2-.32.33-.53-.14,3.39-1.23,6.37-3.02,9.12-1.99,3.06-4.76,4.53-8.42,4.21-1.54-.13-2.94.22-4.22,1.12-.76.54-1.58.98-2.52,1.13-.72.11-1.45.23-2.17-.1,1.8-.2,3.13-1.19,4.36-2.42.55-.55,1.26-.99,1.96-1.34.92-.47,1.9-.82,2.86-1.21,1.69-.67,3.06-1.74,4.15-3.2-.25.01-.48.06-.7.15-1.01.39-2.05.53-3.12.56-1.41.03-2.82.04-4.22.06-1.99.04-3.91.44-5.68,1.38-.72.38-1.38.87-2.07,1.3l.08.15c.55-.08,1.1-.16,1.65-.23,1.34-.16,2.69-.32,4.04-.46.36-.04.75-.06,1.22.2-.32.11-.49.17-.67.22-2.1.56-4.06,1.4-5.85,2.65-.87.61-1.76,1.18-2.63,1.8-2.14,1.53-4.53,2.44-7.12,2.81-.67.1-1.34.13-2.01.2-.05-.09-.11-.18-.16-.27.18-.1.37-.19.53-.32,4.34-3.6,8.43-7.46,12.08-11.78,1.3-1.53,2.82-2.8,4.57-3.81,1.22-.7,2.43-1.42,3.65-2.12,2.39-1.38,4.12-3.45,5.98-5.66-1.68.46-2.96,1.45-4.51,1.83.21-.46.46-.86.77-1.2,1.08-1.14,2.17-2.26,3.28-3.37,1.58-1.56,2.96-3.26,4.06-5.19.08-.14.13-.31.23-.56-1.59.4-2.67,1.44-3.94,2.21.37-1.34,1.1-2.48,1.65-3.73-.97.29-1.9.58-2.78.98-.9.41-1.76.94-2.72,1.45.02-.25,0-.41.06-.54.79-1.97,1.83-3.78,3.52-5.13.46-.37.92-.72,1.39-1.06,1.11-.83,1.86-1.9,2.35-3.37-.22.2-.33.28-.41.38-.97,1.09-2.19,1.83-3.48,2.49-.71.36-1.37.81-2.04,1.23-.52.33-1.01.69-1.53,1.01-.18.11-.4.15-.71.26.9-1.87,1.72-3.6,2.54-5.33-1.34,1.13-2.52,2.39-3.41,3.87-1.09,1.82-2.11,3.69-3.1,5.56-1.2,2.25-2.35,4.53-3.95,6.54-.12.15-.22.31-.34.47.04.04.08.07.13.11,1.12-.99,2.25-1.97,3.37-2.96l.15.08c-.22.5-.39,1.02-.67,1.48-1.21,2.07-2.85,3.76-4.72,5.23-.42.33-.83.65-1.25.98.03.05.07.1.1.16,1.13-.49,2.26-.98,3.4-1.47-1.12,1.38-2.28,2.66-3.52,3.86-2.48,2.38-4.71,4.96-6.68,7.79-1.15,1.65-2.45,3.21-3.73,4.77-2.12,2.59-4.29,5.14-6.43,7.71-.12.15-.21.32-.32.48.03.05.06.1.09.14,1.05-.24,2.11-.48,3.29-.76-.96,1.32-2.37,1.85-3.47,2.65,1.26.11,2.53.17,3.78.35.97.14,1.91.44,2.87.66,1.47.35,2.95.67,4.48.62,1.79-.07,3.43-.69,5.05-1.35,2.12-.86,4.22-1.74,6.5-2.11,1.48-.24,2.95-.37,4.44-.1.14.03.27.12.57.26-1.95.19-3.59.74-5.37,1.46.31.06.44.09.57.11,1.77.18,3.54.4,5.31.51,2.26.14,4.46-.13,6.48-1.26.89-.5,1.68-1.12,2.33-1.91.24-.29.3-.62.13-.96-.19-.37-.53-.38-.9-.33-.61.09-1.11.36-1.46.87-.18.26-.34.54-.51.81-.72,1.1-1.75,1.41-3.08.88.23-.05.41-.08.58-.13.58-.14,1.01-.46,1.22-1.03.08-.2.15-.4.24-.59.52-1.17,1.34-1.88,2.68-1.9.66,0,1.33-.02,1.99-.11.79-.1,1.48-.39,1.87-1.18,1.04-2.11,2.09-4.22,3.14-6.33l.04-.02s-.02.04-.02.04c-.17.05-.35.09-.52.14-.71.23-1.41.47-2.12.68-.15.04-.33-.02-.49-.03-.04-.07-.08-.14-.12-.21.21-.15.44-.29.64-.46,1.6-1.37,2.78-3.05,3.69-4.94,1-2.08,2.07-4.12,3.1-6.19,0-.02-.05-.07-.09-.13-1.52.76-2.73,1.9-3.85,3.18.1-.72.29-1.38.45-2.04.35-1.52,1.07-2.81,2.21-3.88,1.48-1.4,2.56-3.04,2.91-5.09.08-.47.21-.93.3-1.4.03-.15.03-.3.06-.57-.61.87-1.12,1.64-1.69,2.37-.86,1.1-1.55,1.61-2.16,1.68.41-1.3.91-2.58,1.2-3.91.3-1.35.39-2.74.58-4.11-.18.05-.25.12-.3.2-1.96,3.09-3.93,6.18-5.88,9.28-.6.95-1,1.99-1.22,3.1-.32,1.66-.66,3.32-1,4.98-.01.02-.03.03-.04.05,0-.02.01-.04.02-.07ZM260.3,404.61c.72-1.41,1.33-2.64,1.57-4.02.28-1.65.53-3.3.8-4.95.03-.15.11-.3.17-.45.32,1.95.28,3.89.63,5.8.57-2.96,1.29-5.88,1.13-8.91-.1-1.98-1.07-8.04-1.41-8.78-.35.91-.67,1.84-1.07,2.73-.76,1.7-1.05,2.11-1.56,2.4.02-.16.01-.29.04-.41.53-2.16.62-4.35.52-6.57-.09-1.83-.12-3.66-.19-5.49,0-.12-.03-.24-.04-.36-.55.71-.95,1.48-1.4,2.22-.46.75-.96,1.48-1.62,2.11.45-2.39.84-4.77.81-7.19-.03-2.42.03-4.84-.05-7.37-.55.46-.56.47-.92,1.33-1.98,4.67-3.27,9.54-4.14,14.53-.31,1.78-.61,3.56-.49,5.38.11,1.62.25,3.23.39,4.84.01.16.09.3.2.62.26-1.1.48-2.03.7-2.96.35-1.48.81-2.92,1.53-4.26.2-.37.48-.71.72-1.06.06.03.12.06.17.09-.09.38-.16.77-.27,1.14-.62,2.19-.69,4.39-.31,6.63.21,1.2.32,2.42.43,3.64.06.62,0,1.25,0,1.88.72-2.01,1.31-4.05,1.69-6.18.15.33.3.67.32,1.02.11,1.59.36,3.19.23,4.76-.23,2.72.65,5.17,1.41,7.87ZM253.85,147.56c-.03.05-.05.11-.08.16-.12-.03-.24-.06-.36-.1-2.38-.76-4.54-.22-6.4,1.34-.88.74-1.64,1.67-2.31,2.62-2.39,3.39-2.89,7.24-2.56,11.25.08.95.2,1.9.39,2.84.18.9.46,1.03,1.27.6,2.45-1.3,3.92-3.34,4.51-6.04.35-1.61.03-3.04-1.13-4.27-.39-.42-.73-.92-.98-1.44-.68-1.41-.21-2.91,1.11-3.75.64-.41,1.35-.62,2.1-.66,1.7-.1,3.2.47,4.51,1.5,1.4,1.1,1.54,2.97.37,4.3-.31.36-.69.67-1.06.96-.5.39-1.05.72-1.55,1.12-.31.24-.61.52-.82.85-.13.21-.19.61-.07.8.11.19.52.34.74.28.63-.17,1.29-.36,1.83-.71,1.47-.94,2.58-2.27,3.76-3.53.82-.87,1.04-1.87.87-3.01-.18-1.19-.75-2.2-1.49-3.12-.17-.21-.32-.42-.48-.63.06-.06.12-.12.18-.17.42.3.9.55,1.25.92.54.57,1.02,1.22,1.49,1.86.82,1.12,1.83,1.83,3.3,1.69.47-.05.96-.02,1.43-.06.37-.03.74-.09,1.1-.19.82-.24,1.01-.64.53-1.35-.28-.42-.72-.78-1.17-1.01-.56-.28-1.22-.36-1.81-.59-.68-.27-1.41-.52-1.98-.97-1.04-.82-1.06-1.62-.26-2.66.02-.03,0-.1,0-.14-2.43-1.45-7.09-1.36-8.47.26.77.37,1.51.73,2.25,1.1ZM282.82,176.8c-.16-1.24-.57-2.31-1.08-3.32-1.04-2.06-2.14-4.09-3.23-6.12-1.96-3.68-4.53-6.84-7.75-9.5-1.6-1.32-3.28-2.43-5.4-2.7-1.78-.23-2.76.71-2.57,2.5.05.42.14.85.3,1.23.31.73.67,1.44,1.04,2.15.49.93,1.25,1.6,2.24,1.93.83.27,1.69.45,2.55.59,1.36.22,2.63.64,3.78,1.39,1.84,1.2,3.42,2.68,4.67,4.5,1.24,1.8,2.17,3.77,3.08,5.74.31.67.59,1.35.92,2.09.48-.15.93-.29,1.44-.46ZM180.6,378.55s.06.06.09.09c.1-.03.2-.05.3-.08,1.57-.6,3.19-.99,4.84-1.25,1.18-.19,2.35-.4,3.5-.71,1.05-.28,1.89-.95,2.7-1.82-2.76.39-3.3.32-3.95-.65.13-.08.3-.16.45-.27.94-.67,1.67-1.55,2.32-2.5.44-.63.86-1.28,1.28-1.92.97-1.47,2.18-2.67,3.78-3.44.17-.08.32-.21.48-.32-2.57-.3-5.01-.13-6.82,1.95-1.2,1.38-2.32,2.83-3.42,4.29-1.43,1.91-2.7,3.94-4.45,5.6-.36.34-.73.68-1.1,1.03ZM227.07,219.81c-1.25,0-2.41.34-3.49.96-.94.54-1.7,1.27-2.2,2.24-.56,1.08-.42,2.21.36,3.11.63.72,1.31.79,1.96.11,1.25-1.3,2.48-2.62,3.68-3.96.36-.41.64-.91.88-1.41.32-.67.1-1-.64-1.04-.18-.01-.37,0-.56,0ZM263.21,173.16c.06.14.1.29.18.41,1.28,1.85,2.57,3.7,3.87,5.55.14.2.36.34.7.64,0-.46.02-.71,0-.96-.18-2.65-1.08-5.07-2.48-7.31-.29-.47-.62-.93-.98-1.35-.12-.13-.47-.22-.6-.15-.15.09-.25.39-.24.59,0,.22.15.45.26.66.99,2,1.98,3.99,2.97,5.99.11.21.21.43.3.65.08.19.13.39.19.58-1.39-1.8-2.53-3.74-4.18-5.3ZM247.17,152.14c2.01-.96,5.96.71,6.82,2.7.35-.87.24-1.46-.47-2.14-.96-.91-2.08-1.55-3.38-1.84-.45-.1-.95-.11-1.42-.04-.71.1-1.3.43-1.56,1.31ZM267.28,171.31c.56.01.97-.43.77-.89-.25-.59-.62-1.16-1.03-1.65-.32-.38-.63-.3-1.11.08-.51.4-.7.82-.47,1.21.43.72,1.1,1.11,1.84,1.25ZM274.36,177.62c.23,1.8.95,3.29,1.51,4.83.07-.02.13-.04.2-.06-.4-1.23-.8-2.46-1.19-3.7.04-.02.09-.04.13-.06.58.87,1.16,1.74,1.79,2.7.27-.39.49-.7.7-1-.79-1.2-1.6-2.24-3.14-2.71ZM270.38,168.95c-.01-.5-.49-1.28-.92-1.51-.58-.31-1.41.13-1.33.75.08.62.37,1.17.96,1.47.58.28,1.3-.12,1.28-.7ZM268.66,165.65c-.54-.14-.54-.14-.9.07-.62.35-1.23.71-1.84,1.08-.34.21-.7.42-.78.96.56-.25,1.02-.55,1.52-.66.9-.19,1.41-.84,2-1.45Z"/>
  <path d="M282.43,336.89c.06,1.97.34,3.91.84,5.82.42,1.59.95,3.15,1.42,4.73.57,1.91,1.06,3.84.95,5.89-.12-.4-.21-.8-.35-1.19-.14-.4-.3-.8-.51-1.16-.22-.38-.51-.73-.91-1.04,0,.22,0,.44.03.65.39,2.77.61,5.55.42,8.34-.06.85-.2,1.69-.32,2.53-.02.17-.12.34-.19.54-.1-.08-.19-.12-.21-.18-.42-1.8-1.44-3.3-2.46-4.79-.66-.97-1.31-1.94-1.95-2.91-.83-1.25-1.47-2.58-1.83-4.04-.02-.1-.08-.18-.28-.28-.16,1.49-.31,2.98-.48,4.61-.11-.25-.19-.38-.23-.52-.83-2.93-1.34-5.9-1.15-8.96.15-2.58.91-5.01,1.78-7.4.44-1.2.9-2.39,1.34-3.58.09-.24.15-.49.26-.89-1.73,1.31-2.79,2.85-3.22,4.88-.05-.16-.13-.31-.16-.47-.37-2.04.04-3.96.86-5.82.24-.53.46-1.08.73-1.59,1.07-2.07,1.52-4.26,1.51-6.6-.02-2.52.11-5.04.3-7.56.08-1.1.47-2.17.72-3.25h-.02c.02.28.08.57.06.86-.23,3.37.36,6.6,1.52,9.75,1,2.74,2.05,5.46,2.55,8.36.39,2.26.5,4.53.38,6.82-.01.25-.09.5-.14.74-.07.01-.14.03-.2.04-.19-.42-.38-.84-.58-1.26-.17-.35-.35-.68-.52-1.03-.02-.04-.04-.08-.07-.13.03.04.06.07.09.11Z"/>
  <path d="M270.5,232.79c.66-1.61,1.57-3.07,2.56-4.49,1.08-1.57,2.14-3.15,3.21-4.72-.23,1.13-.6,2.25-1.13,3.3-.63,1.26-1.31,2.49-2,3.71-1.15,2.05-2.01,4.22-2.67,6.46-.11.37-.25.73-.44,1.29-.24-.31-.43-.45-.49-.64-.14-.48-.22-.98-.34-1.47-.07-.29-.18-.58-.33-1.02-1.62,1-2.72,2.38-4.02,3.51-1.3,1.14-2.35,2.51-3.3,3.97-.1-1.5.53-2.97.26-4.45-.61-.05-.84.28-1.07.54-1.23,1.37-1.97,3.01-2.53,4.75-.29.9-.52,1.82-.84,2.72-.04-1.4.1-2.78.45-4.12.78-2.94,2.32-5.39,4.75-7.26,1.07-.83,2.11-1.7,3.13-2.59.41-.35.74-.79,1.15-1.16-.15,1.1-.69,1.98-1.43,2.76-1.11,1.16-1.8,2.55-2.21,4.09-.03.12-.04.25.07.47.25-.25.5-.49.76-.74.76-.74,1.55-1.46,2.28-2.22,1.47-1.51,2.46-3.32,3.24-5.26.37-.91.83-1.78,1.29-2.64.17-.32.45-.57.82-.8-.04.18-.07.37-.11.55-.35,1.61-.71,3.21-1.06,4.82-.04.2.02.42.03.63h-.06s.04,0,.04,0Z"/>
  <path d="M270.08,249.81c.09,1.69.82,3.14,1.68,4.59-.02-.4-.01-.81-.07-1.21-.19-1.21-.4-2.41-.61-3.61-.31-1.82-.2-3.65-.13-5.48.01-.29.14-.58.29-.86.14,1.57.72,2.97,1.39,4.36-.32-2.71-.13-5.35.78-7.92.25-.7.6-1.36.92-2.02.06-.13.2-.22.41-.28-.11.34-.23.68-.33,1.02-.61,2.01-.7,4.08-.73,6.15-.03,1.83,0,3.67-.02,5.5,0,.56,0,1.16-.54,1.77-.23-.6-.43-1.1-.62-1.6-.05,0-.09,0-.14-.01,0,.25-.02.51-.01.76.05,1.54.13,3.08.14,4.61,0,.73-.14,1.47-.24,2.38-.77-.7-.61-1.83-1.57-2.28-1.07,1.31-1.6,2.89-2.33,4.34-.73,1.44-1.2,2.99-1.49,4.59-.2-1.72-.04-3.39.53-5.02.29-.83.6-1.65.96-2.45.88-1.94,1.37-3.95,1.41-6.09,0-.42.09-.83.14-1.24.07,0,.13,0,.2-.01Z"/>
  <path d="M239.91,251.37c-.96,1.78-2.47,2.89-4.49,3.49,1.58.56,2.85.12,4.09-.74-.07.14-.12.31-.22.43-.4.49-.81.98-1.24,1.45-.95,1.04-2.19,1.46-3.54,1.62-1.28.15-2.34.63-3.06,1.94,2.13-.59,4.31-.12,6.37-1.07-.03.4-.28.57-.5.7-.62.35-1.25.74-1.92.94-1.94.59-3.41,1.75-4.6,3.37-.59.8-1.31,1.52-2.03,2.23-.43.42-.99.65-1.62.73,1.44-.93,2.2-2.43,3.21-3.72.63-.81,1.33-1.57,2.02-2.38-.83-.2-1.52.33-2.29.68.05-.69,1.07-2.32,1.99-3.33.9-.99,2.11-1.38,3.46-1.75-.78-.55-1.53-1.01-1.91-2.01,1.25.09,2.4-.03,3.41-.68.96-.62,1.89-1.27,2.84-1.9Z"/>
  <path d="M230.48,278.43c1.08-1.38,2.17-2.76,3.27-4.17.11.13.17.18.16.2-1.12,2.13-1.76,4.44-2.55,6.69-.68,1.94-1.42,3.84-2.64,5.51-.24.33-.51.63-.85.9,1.24-2.43,1.82-5.06,2.56-7.69-.81.05-1.58.35-2.29-.24.07-.14.11-.29.19-.36.73-.58,1.04-1.39,1.28-2.24.22-.79.41-1.59.65-2.38.43-1.37,1.23-2.46,2.5-3.17.66-.37,1.19-.88,1.6-1.52.15-.24.33-.46.55-.66-.03.66-.26,1.24-.66,1.73-.33.41-.67.83-1.08,1.17-1.11.92-1.77,2.1-2.15,3.46-.24.89-.49,1.78-.73,2.66.06.03.11.07.17.1Z"/>
  <path d="M251.5,296.87c.12-.22.23-.46.37-.67.8-1.12,1.52-2.29,1.91-3.65-1.76,1.82-3.53,3.64-5.29,5.46-.03-.01-.05-.02-.08-.03.18-.34.32-.7.55-1.01.75-1,1.55-1.96,2.28-2.97,1.12-1.55,2.2-3.12,3.3-4.68.24-.34.49-.66.72-.95.57.18.55.57.51.89-.1.87-.25,1.73-.39,2.59-.04.25-.1.5-.03.87,1.66-1.01,3.31-2.03,5.1-3.12-.79,1.09-1.51,2.05-2.52,2.75-1.63,1.14-3.26,2.28-4.9,3.42-.52.36-1.04.71-1.56,1.07l.02.02Z"/>
  <path d="M277.64,201.26c-.19-.29-.31-.48-.47-.74-.27,2.33-.77,4.49-2.83,5.91.23-.52.46-1.04.69-1.56.79-1.79,1.23-3.67,1.3-5.62.04-.99.26-1.94.79-3,.15.83.27,1.49.39,2.15.05.01.1.02.16.03.32-2.07.9-4.01,2.66-5.34-1.07,1.46-1.14,3.2-1.45,4.87-.16.83-.44,1.63-.71,2.44-.09.28-.31.53-.53.87Z"/>
  <path d="M276.52,206.19c-.67,2.58-2.6,4.56-4.23,4.29,1.24-1.67,2.71-3,4.23-4.29Z"/>
  <path d="M229.99,265.93c-.28,1.76-2.49,3.51-4.38,3.44,1.5-1.18,2.89-2.27,4.38-3.44Z"/>
  <path d="M240.96,249.15c-.75.74-1.43,1.44-2.13,2.1-.64.62-1.4.92-2.31.78,0-.05-.03-.13,0-.14.89-.7,1.77-1.42,2.68-2.1.49-.37,1-.77,1.76-.64Z"/>
  <path d="M238.32,203.55c-.1,1.8-.4,2.82-.96,3.2-.64-.45-.53-1.07-.36-1.69.19-.69.49-1.31,1.32-1.51Z"/>
  <path d="M270.33,213.95c.25-1,1.41-1.94,2.25-1.86.04,1.25-.95,2.1-2.25,1.86Z"/>
  <path d="M214.3,240.25c.1.87-.83,3.71-1.41,4.38-.33-.74.58-3.67,1.41-4.38Z"/>
  <path d="M268.2,217.6c.07,1.23-.8,1.87-1.96,1.49-.08-.93.77-1.59,1.96-1.49Z"/>
  <path d="M227.49,270.33c-.37,1.32-1.61,2.17-2.56,1.77.57-1.04,1.67-1.26,2.56-1.77Z"/>
  <path d="M239.46,201.42c.13-.28.28-.64.48-.97.06-.1.29-.18.4-.14.11.03.26.23.26.34-.03.5-.09,1-.19,1.49-.03.13-.26.29-.4.29-.14,0-.34-.15-.41-.28-.09-.18-.08-.41-.14-.73Z"/>
  <path d="M240.74,247.34c-.71.38-1.37.87-2.16,1.06-.05-.05-.11-.1-.16-.15.11-.2.17-.44.32-.58.5-.43,1.35-.59,2-.33Z"/>
  <path d="M242.37,192.74c.41.43.51,1.01.25,1.36-.07.09-.22.2-.31.18-.13-.03-.28-.14-.35-.26-.19-.36-.03-.84.41-1.28Z"/>
  <path d="M214.05,237.78c-.14.82-.35,1.43-1.04,1.89-.06-.97.28-1.62,1.04-1.89Z"/>
  <path d="M241.43,196.91c.51.42.54.85.43,1.3-.08.31-.46.4-.6.14-.13-.24-.19-.55-.17-.82.02-.2.21-.39.35-.63Z"/>
  <path d="M225.04,274.13c.17.47.06.73-.51.65.17-.22.34-.44.51-.65Z"/>
  <path d="M240.6,244.77c-.22.13-.44.25-.69.39-.07-.58-.06-.59.6-.55l.09.16Z"/>
  <path d="M213.2,342.92c0,.06-.01.12,0,.05-.04.06,0,.01.02-.03l-.02-.02Z"/>
  <path d="M212.41,339.43s.08-.05.13-.08c-.05.02-.1.04-.14.06,0,0,.02.02.02.02Z"/>
  <path d="M247.02,267.2s.05-.04.05-.04c0,0-.04.01-.07.02,0,0,.02.02.02.02Z"/>
  <polygon points="279.37 312.62 279.4 312.62 279.34 312.62 279.37 312.62"/>
  <path d="M282.4,323.19s.06.03.08.04c-.01,0-.03,0-.04,0-.01-.02-.02-.04-.03-.05l-.02.02Z"/>
  <path d="M205.71,336.86s0,.04,0,.05c0-.01.01-.03.02-.04l-.02-.02Z"/>
  <path d="M208.9,354.08s0,.04,0,.06c0-.01.02-.03.03-.04l-.02-.02Z"/>
  <path d="M238.24,303.19s-.02.03-.03.04l.02-.02s.01-.02.01-.02Z"/>
  <polygon points="285.75 367.03 285.79 367.04 285.77 367.01 285.75 367.03"/>
  <path d="M251.49,296.85s-.01.04-.02.06c.01-.01.03-.03.04-.04l-.02-.02Z"/>
  <polygon points="293.58 393.19 293.57 393.16 293.58 393.21 293.58 393.19"/>
  <polygon points="328.94 394.31 329 394.32 328.96 394.32 328.94 394.31"/>
  <path d="M178.14,399.1v-.02s0,.02,0,.02Z"/>
  <path d="M329.49,399.37s-.06-.02-.09-.03c.01,0,.04-.01.04,0,.01.01.02.04.03.06l.02-.02Z"/>
  <polygon points="238.45 289.4 238.42 289.38 238.47 289.41 238.45 289.4"/>
  <path d="M180.21,417.56s-.02.04-.03.06c.02-.01.03-.03.05-.04l-.02-.02Z"/>
  <path d="M229.64,422.66s-.04.06-.06.09c0-.02,0-.05,0-.06.02-.01.05-.01.07-.02,0,0-.02-.02-.02-.02Z"/>
  <path d="M301.25,289.36l-.12-.15s.04-.03.06-.04c.01.07.03.13.04.2h.02Z"/>
  <path d="M304.1,323.19s0-.04,0-.05c0,.02-.01.05-.02.07l.02-.02Z"/>
  <polygon points="311.11 361.95 311.11 361.92 311.1 361.97 311.11 361.95"/>
  <polygon points="213.85 400.49 213.83 400.54 213.87 400.51 213.85 400.49"/>
  <path d="M237.17,397.38s.01-.01.02-.02c0,0-.02.02-.02.02Z"/>
  <path d="M243.21,410.72s.03-.05.05-.07c0,.01,0,.04,0,.04-.02,0-.04,0-.06.01l.02.02Z"/>
</svg>