<?xml version="1.0" encoding="UTF-8"?>
<svg id="Layer_1" data-name="Layer 1" xmlns="http://www.w3.org/2000/svg" viewBox="0 0 623.62 623.62">
  <defs>
    <style>
      .cls-1 {
        fill: none;
        stroke: #231f20;
        stroke-miterlimit: 10;
      }
    </style>
  </defs>
  <path class="cls-1" d="M526.62,272.65H97c-15.73,0-28.48,12.75-28.48,28.48v21.36c0,15.73,12.75,28.48,28.48,28.48h429.63c15.73,0,28.48-12.75,28.48-28.48v-21.36c0-15.73-12.75-28.48-28.48-28.48ZM432.07,314.58c0,5.46-4.43,9.89-9.89,9.89h-220.75c-5.46,0-9.89-4.43-9.89-9.89v-4.75c0-5.46,4.43-9.89,9.89-9.89h220.75c5.46,0,9.89,4.43,9.89,9.89v4.75Z"/>
</svg>